<?xml version="1.0" encoding="UTF-8"?>
<svg id="Layer_1" data-name="Layer 1" xmlns="http://www.w3.org/2000/svg" xmlns:xlink="http://www.w3.org/1999/xlink" viewBox="0 0 2197 3663">
  <defs>
    <style>
      .cls-1, .cls-2, .cls-3, .cls-4 {
        fill: none;
      }

      .cls-1, .cls-3, .cls-4 {
        stroke: #f7f7f7;
        stroke-miterlimit: 10;
        stroke-width: 3px;
      }

      .cls-5 {
        clip-path: url(#clippath);
      }

      .cls-2 {
        stroke-width: 0px;
      }

      .cls-3 {
        opacity: .5;
      }

      .cls-4 {
        opacity: .26;
      }
    </style>
    <clipPath id="clippath">
      <rect class="cls-2" x="-.5" y="-.5" width="2198" height="3663.5"/>
    </clipPath>
  </defs>
  <g class="cls-5">
    <path class="cls-4" d="M1937.44-668.49c-76.74,66.84-347.63,317.28-470.32,749.66-84.46,297.65,7.86,418.44-3.67,794.26-4.57,148.95-24.12,786.31-362.53,1276.21-329.88,477.56-706.91,444.62-882.56,876.47-104.52,256.96-69.33,510.29-32.21,666.3"/>
    <path class="cls-1" d="M1747.95-771.98c-120.13,62.45-268.47,166.15-340.65,336.59-188.26,444.58,373.71,795.38,252.08,1356.59-107.31,495.11-600.7,480.48-777.3,1053.76-169.15,549.08,182.19,891.26-46.3,1331.02-119.69,230.35-329.37,354.49-483.56,422.63"/>
    <path class="cls-3" d="M1883.5-64.5c-725.69,445.82-886.62,807.99-882,1068.67,6.08,343.37,298.08,437.32,389,936.13,114.84,630-232.07,1132.29-248,1154.62-353.35,495.19-894.61,572.48-997,585.08"/>
  </g>
</svg>