<?xml version="1.0" encoding="UTF-8"?>
<svg xmlns="http://www.w3.org/2000/svg" xmlns:xlink="http://www.w3.org/1999/xlink" viewBox="0 0 3546 1080">
  <defs>
    <style>
      .cls-1 {
        clip-path: url(#clippath);
      }

      .cls-2 {
        stroke-width: 0px;
      }

      .cls-2, .cls-3, .cls-4 {
        fill: none;
      }

      .cls-3 {
        opacity: .35;
      }

      .cls-3, .cls-4 {
        stroke: #fdb833;
        stroke-miterlimit: 10;
        stroke-width: 3px;
      }
    </style>
    <clipPath id="clippath">
      <rect class="cls-2" x="3842" y="-408" width="3850" height="1080"/>
    </clipPath>
  </defs>
  <g id="Layer_1" data-name="Layer 1">
    <g class="cls-1">
      <path class="cls-4" d="M8160.48,1135.49c-300.12-420.66-793.69-898.13-1598.83-978.02-333.11-33.05-521.04,21.64-848.94,22.56-590.25,1.65-1411.69-171.59-2425.14-939.89"/>
    </g>
  </g>
  <g id="Layer_2" data-name="Layer 2">
    <path class="cls-4" d="M3546.08,1001.75c-17.64-13.24-35.64-26.3-54-39.17-236.71-165.88-534.24-298.84-907.7-345.82-25.92-3.27-52.22-6.12-78.88-8.53-306.8-27.79-479.89,18.2-781.89,18.97-286.95.73-633.23-39.51-1033.53-172.67C475.5,383.16,245.4,285.08.58,152.3"/>
    <path class="cls-3" d="M3546.08,969.45c-17.86-2.12-35.87-4.41-54-6.87-116.1-15.78-237.03-38.83-355.72-72.28-314.82-88.73-428.26-187.89-551.98-273.54-97.3-67.36-200.95-126.36-413.92-165.33-378.03-69.18-564.62,44.45-1211.52,20.18-94-3.53-183.74-9.44-268.86-17.08C403.54,428.82,169.27,383.58.58,344.09"/>
  </g>
</svg>