<svg width="1651" height="651" viewBox="0 0 1651 651" fill="none" xmlns="http://www.w3.org/2000/svg">
<g opacity="0.6">
<g style="mix-blend-mode:soft-light" opacity="0.7">
<path d="M48.1109 9.47656H11.1025V41.0652M48.1109 9.47656V41.0652M48.1109 9.47656H85.1193M48.1109 41.0652H11.1025M48.1109 41.0652V72.6539M48.1109 41.0652H85.1193M11.1025 41.0652V72.6539M48.1109 72.6539H11.1025M48.1109 72.6539V104.243M48.1109 72.6539H85.1193M11.1025 72.6539V104.243M48.1109 104.243H11.1025M48.1109 104.243V135.831M48.1109 104.243H85.1193M11.1025 104.243V135.831M48.1109 135.831H11.1025M48.1109 135.831V167.42M48.1109 135.831H85.1193M11.1025 135.831V167.42M48.1109 167.42H11.1025M48.1109 167.42V199.009M48.1109 167.42H85.1193M11.1025 167.42V199.009M48.1109 199.009H11.1025M48.1109 199.009V230.597M48.1109 199.009H85.1193M11.1025 199.009V230.597M48.1109 230.597H11.1025M48.1109 230.597V262.186M48.1109 230.597H85.1193M11.1025 230.597V262.186M48.1109 262.186H11.1025M48.1109 262.186V293.775M48.1109 262.186H85.1193M11.1025 262.186V293.775M48.1109 293.775H11.1025M48.1109 293.775V325.363M48.1109 293.775H85.1193M11.1025 293.775V325.363M48.1109 325.363H11.1025M48.1109 325.363V356.952M48.1109 325.363H85.1193M11.1025 325.363V356.952M48.1109 356.952H11.1025M48.1109 356.952V388.54M48.1109 356.952H85.1193M11.1025 356.952V388.54M48.1109 388.54H11.1025M48.1109 388.54V420.129M48.1109 388.54H85.1193M11.1025 388.54V420.129M48.1109 420.129H11.1025M48.1109 420.129V451.718M48.1109 420.129H85.1193M11.1025 420.129V451.718M48.1109 451.718H11.1025M48.1109 451.718V483.306M48.1109 451.718H85.1193M11.1025 451.718V483.306M48.1109 483.306H11.1025M48.1109 483.306V514.895M48.1109 483.306H85.1193M11.1025 483.306V514.895M48.1109 514.895H11.1025M48.1109 514.895V546.484M48.1109 514.895H85.1193M11.1025 514.895V546.484M48.1109 546.484H11.1025M48.1109 546.484V578.072M48.1109 546.484H85.1193M11.1025 546.484V578.072M48.1109 578.072H11.1025M48.1109 578.072V609.661M48.1109 578.072H85.1193M11.1025 578.072V609.661M48.1109 609.661H11.1025M48.1109 609.661V641.25M48.1109 609.661H85.1193M11.1025 609.661V641.25H48.1109M48.1109 641.25H85.1193M85.1193 9.47656V41.0652M85.1193 9.47656H122.128M85.1193 41.0652V72.6539M85.1193 41.0652H122.128M85.1193 72.6539V104.243M85.1193 72.6539H122.128M85.1193 104.243V135.831M85.1193 104.243H122.128M85.1193 135.831V167.42M85.1193 135.831H122.128M85.1193 167.42V199.009M85.1193 167.42H122.128M85.1193 199.009V230.597M85.1193 199.009H122.128M85.1193 230.597V262.186M85.1193 230.597H122.128M85.1193 262.186V293.775M85.1193 262.186H122.128M85.1193 293.775V325.363M85.1193 293.775H122.128M85.1193 325.363V356.952M85.1193 325.363H122.128M85.1193 356.952V388.54M85.1193 356.952H122.128M85.1193 388.54V420.129M85.1193 388.54H122.128M85.1193 420.129V451.718M85.1193 420.129H122.128M85.1193 451.718V483.306M85.1193 451.718H122.128M85.1193 483.306V514.895M85.1193 483.306H122.128M85.1193 514.895V546.484M85.1193 514.895H122.128M85.1193 546.484V578.072M85.1193 546.484H122.128M85.1193 578.072V609.661M85.1193 578.072H122.128M85.1193 609.661V641.25M85.1193 609.661H122.128M85.1193 641.25H122.128M122.128 9.47656V41.0652M122.128 9.47656H159.136M122.128 41.0652V72.6539M122.128 41.0652H159.136M122.128 72.6539V104.243M122.128 72.6539H159.136M122.128 104.243V135.831M122.128 104.243H159.136M122.128 135.831V167.42M122.128 135.831H159.136M122.128 167.42V199.009M122.128 167.42H159.136M122.128 199.009V230.597M122.128 199.009H159.136M122.128 230.597V262.186M122.128 230.597H159.136M122.128 262.186V293.775M122.128 262.186H159.136M122.128 293.775V325.363M122.128 293.775H159.136M122.128 325.363V356.952M122.128 325.363H159.136M122.128 356.952V388.54M122.128 356.952H159.136M122.128 388.54V420.129M122.128 388.54H159.136M122.128 420.129V451.718M122.128 420.129H159.136M122.128 451.718V483.306M122.128 451.718H159.136M122.128 483.306V514.895M122.128 483.306H159.136M122.128 514.895V546.484M122.128 514.895H159.136M122.128 546.484V578.072M122.128 546.484H159.136M122.128 578.072V609.661M122.128 578.072H159.136M122.128 609.661V641.25M122.128 609.661H159.136M122.128 641.25H159.136M159.136 9.47656V41.0652M159.136 9.47656H196.144M159.136 41.0652V72.6539M159.136 41.0652H196.144M159.136 72.6539V104.243M159.136 72.6539H196.144M159.136 104.243V135.831M159.136 104.243H196.144M159.136 135.831V167.42M159.136 135.831H196.144M159.136 167.42V199.009M159.136 167.42H196.144M159.136 199.009V230.597M159.136 199.009H196.144M159.136 230.597V262.186M159.136 230.597H196.144M159.136 262.186V293.775M159.136 262.186H196.144M159.136 293.775V325.363M159.136 293.775H196.144M159.136 325.363V356.952M159.136 325.363H196.144M159.136 356.952V388.54M159.136 356.952H196.144M159.136 388.54V420.129M159.136 388.54H196.144M159.136 420.129V451.718M159.136 420.129H196.144M159.136 451.718V483.306M159.136 451.718H196.144M159.136 483.306V514.895M159.136 483.306H196.144M159.136 514.895V546.484M159.136 514.895H196.144M159.136 546.484V578.072M159.136 546.484H196.144M159.136 578.072V609.661M159.136 578.072H196.144M159.136 609.661V641.25M159.136 609.661H196.144M159.136 641.25H196.144M196.144 9.47656V41.0652M196.144 9.47656H233.153M196.144 41.0652V72.6539M196.144 41.0652H233.153M196.144 72.6539V104.243M196.144 72.6539H233.153M196.144 104.243V135.831M196.144 104.243H233.153M196.144 135.831V167.42M196.144 135.831H233.153M196.144 167.42V199.009M196.144 167.42H233.153M196.144 199.009V230.597M196.144 199.009H233.153M196.144 230.597V262.186M196.144 230.597H233.153M196.144 262.186V293.775M196.144 262.186H233.153M196.144 293.775V325.363M196.144 293.775H233.153M196.144 325.363V356.952M196.144 325.363H233.153M196.144 356.952V388.54M196.144 356.952H233.153M196.144 388.54V420.129M196.144 388.54H233.153M196.144 420.129V451.718M196.144 420.129H233.153M196.144 451.718V483.306M196.144 451.718H233.153M196.144 483.306V514.895M196.144 483.306H233.153M196.144 514.895V546.484M196.144 514.895H233.153M196.144 546.484V578.072M196.144 546.484H233.153M196.144 578.072V609.661M196.144 578.072H233.153M196.144 609.661V641.25M196.144 609.661H233.153M196.144 641.25H233.153M233.153 9.47656V41.0652M233.153 9.47656H270.161M233.153 41.0652V72.6539M233.153 41.0652H270.161M233.153 72.6539V104.243M233.153 72.6539H270.161M233.153 104.243V135.831M233.153 104.243H270.161M233.153 135.831V167.42M233.153 135.831H270.161M233.153 167.42V199.009M233.153 167.42H270.161M233.153 199.009V230.597M233.153 199.009H270.161M233.153 230.597V262.186M233.153 230.597H270.161M233.153 262.186V293.775M233.153 262.186H270.161M233.153 293.775V325.363M233.153 293.775H270.161M233.153 325.363V356.952M233.153 325.363H270.161M233.153 356.952V388.54M233.153 356.952H270.161M233.153 388.54V420.129M233.153 388.54H270.161M233.153 420.129V451.718M233.153 420.129H270.161M233.153 451.718V483.306M233.153 451.718H270.161M233.153 483.306V514.895M233.153 483.306H270.161M233.153 514.895V546.484M233.153 514.895H270.161M233.153 546.484V578.072M233.153 546.484H270.161M233.153 578.072V609.661M233.153 578.072H270.161M233.153 609.661V641.25M233.153 609.661H270.161M233.153 641.25H270.161M270.161 9.47656V41.0652M270.161 9.47656H307.17M270.161 41.0652V72.6539M270.161 41.0652H307.17M270.161 72.6539V104.243M270.161 72.6539H307.17M270.161 104.243V135.831M270.161 104.243H307.17M270.161 135.831V167.42M270.161 135.831H307.17M270.161 167.42V199.009M270.161 167.42H307.17M270.161 199.009V230.597M270.161 199.009H307.17M270.161 230.597V262.186M270.161 230.597H307.17M270.161 262.186V293.775M270.161 262.186H307.17M270.161 293.775V325.363M270.161 293.775H307.17M270.161 325.363V356.952M270.161 325.363H307.17M270.161 356.952V388.54M270.161 356.952H307.17M270.161 388.54V420.129M270.161 388.54H307.17M270.161 420.129V451.718M270.161 420.129H307.17M270.161 451.718V483.306M270.161 451.718H307.17M270.161 483.306V514.895M270.161 483.306H307.17M270.161 514.895V546.484M270.161 514.895H307.17M270.161 546.484V578.072M270.161 546.484H307.17M270.161 578.072V609.661M270.161 578.072H307.17M270.161 609.661V641.25M270.161 609.661H307.17M270.161 641.25H307.17M307.17 9.47656V41.0652M307.17 9.47656H344.178M307.17 41.0652V72.6539M307.17 41.0652H344.178M307.17 72.6539V104.243M307.17 72.6539H344.178M307.17 104.243V135.831M307.17 104.243H344.178M307.17 135.831V167.42M307.17 135.831H344.178M307.17 167.42V199.009M307.17 167.42H344.178M307.17 199.009V230.597M307.17 199.009H344.178M307.17 230.597V262.186M307.17 230.597H344.178M307.17 262.186V293.775M307.17 262.186H344.178M307.17 293.775V325.363M307.17 293.775H344.178M307.17 325.363V356.952M307.17 325.363H344.178M307.17 356.952V388.54M307.17 356.952H344.178M307.17 388.54V420.129M307.17 388.54H344.178M307.17 420.129V451.718M307.17 420.129H344.178M307.17 451.718V483.306M307.17 451.718H344.178M307.17 483.306V514.895M307.17 483.306H344.178M307.17 514.895V546.484M307.17 514.895H344.178M307.17 546.484V578.072M307.17 546.484H344.178M307.17 578.072V609.661M307.17 578.072H344.178M307.17 609.661V641.25M307.17 609.661H344.178M307.17 641.25H344.178M344.178 9.47656V41.0652M344.178 9.47656H381.186M344.178 41.0652V72.6539M344.178 41.0652H381.186M344.178 72.6539V104.243M344.178 72.6539H381.186M344.178 104.243V135.831M344.178 104.243H381.186M344.178 135.831V167.42M344.178 135.831H381.186M344.178 167.42V199.009M344.178 167.42H381.186M344.178 199.009V230.597M344.178 199.009H381.186M344.178 230.597V262.186M344.178 230.597H381.186M344.178 262.186V293.775M344.178 262.186H381.186M344.178 293.775V325.363M344.178 293.775H381.186M344.178 325.363V356.952M344.178 325.363H381.186M344.178 356.952V388.54M344.178 356.952H381.186M344.178 388.54V420.129M344.178 388.54H381.186M344.178 420.129V451.718M344.178 420.129H381.186M344.178 451.718V483.306M344.178 451.718H381.186M344.178 483.306V514.895M344.178 483.306H381.186M344.178 514.895V546.484M344.178 514.895H381.186M344.178 546.484V578.072M344.178 546.484H381.186M344.178 578.072V609.661M344.178 578.072H381.186M344.178 609.661V641.25M344.178 609.661H381.186M344.178 641.25H381.186M381.186 9.47656V41.0652M381.186 9.47656H418.195M381.186 41.0652V72.6539M381.186 41.0652H418.195M381.186 72.6539V104.243M381.186 72.6539H418.195M381.186 104.243V135.831M381.186 104.243H418.195M381.186 135.831V167.42M381.186 135.831H418.195M381.186 167.42V199.009M381.186 167.42H418.195M381.186 199.009V230.597M381.186 199.009H418.195M381.186 230.597V262.186M381.186 230.597H418.195M381.186 262.186V293.775M381.186 262.186H418.195M381.186 293.775V325.363M381.186 293.775H418.195M381.186 325.363V356.952M381.186 325.363H418.195M381.186 356.952V388.54M381.186 356.952H418.195M381.186 388.54V420.129M381.186 388.54H418.195M381.186 420.129V451.718M381.186 420.129H418.195M381.186 451.718V483.306M381.186 451.718H418.195M381.186 483.306V514.895M381.186 483.306H418.195M381.186 514.895V546.484M381.186 514.895H418.195M381.186 546.484V578.072M381.186 546.484H418.195M381.186 578.072V609.661M381.186 578.072H418.195M381.186 609.661V641.25M381.186 609.661H418.195M381.186 641.25H418.195M418.195 9.47656V41.0652M418.195 9.47656H455.203M418.195 41.0652V72.6539M418.195 41.0652H455.203M418.195 72.6539V104.243M418.195 72.6539H455.203M418.195 104.243V135.831M418.195 104.243H455.203M418.195 135.831V167.42M418.195 135.831H455.203M418.195 167.42V199.009M418.195 167.42H455.203M418.195 199.009V230.597M418.195 199.009H455.203M418.195 230.597V262.186M418.195 230.597H455.203M418.195 262.186V293.775M418.195 262.186H455.203M418.195 293.775V325.363M418.195 293.775H455.203M418.195 325.363V356.952M418.195 325.363H455.203M418.195 356.952V388.54M418.195 356.952H455.203M418.195 388.54V420.129M418.195 388.54H455.203M418.195 420.129V451.718M418.195 420.129H455.203M418.195 451.718V483.306M418.195 451.718H455.203M418.195 483.306V514.895M418.195 483.306H455.203M418.195 514.895V546.484M418.195 514.895H455.203M418.195 546.484V578.072M418.195 546.484H455.203M418.195 578.072V609.661M418.195 578.072H455.203M418.195 609.661V641.25M418.195 609.661H455.203M418.195 641.25H455.203M455.203 9.47656V41.0652M455.203 9.47656H492.212M455.203 41.0652V72.6539M455.203 41.0652H492.212M455.203 72.6539V104.243M455.203 72.6539H492.212M455.203 104.243V135.831M455.203 104.243H492.212M455.203 135.831V167.42M455.203 135.831H492.212M455.203 167.42V199.009M455.203 167.42H492.212M455.203 199.009V230.597M455.203 199.009H492.212M455.203 230.597V262.186M455.203 230.597H492.212M455.203 262.186V293.775M455.203 262.186H492.212M455.203 293.775V325.363M455.203 293.775H492.212M455.203 325.363V356.952M455.203 325.363H492.212M455.203 356.952V388.54M455.203 356.952H492.212M455.203 388.54V420.129M455.203 388.54H492.212M455.203 420.129V451.718M455.203 420.129H492.212M455.203 451.718V483.306M455.203 451.718H492.212M455.203 483.306V514.895M455.203 483.306H492.212M455.203 514.895V546.484M455.203 514.895H492.212M455.203 546.484V578.072M455.203 546.484H492.212M455.203 578.072V609.661M455.203 578.072H492.212M455.203 609.661V641.25M455.203 609.661H492.212M455.203 641.25H492.212M492.212 9.47656V41.0652M492.212 9.47656H529.22M492.212 41.0652V72.6539M492.212 41.0652H529.22M492.212 72.6539V104.243M492.212 72.6539H529.22M492.212 104.243V135.831M492.212 104.243H529.22M492.212 135.831V167.42M492.212 135.831H529.22M492.212 167.42V199.009M492.212 167.42H529.22M492.212 199.009V230.597M492.212 199.009H529.22M492.212 230.597V262.186M492.212 230.597H529.22M492.212 262.186V293.775M492.212 262.186H529.22M492.212 293.775V325.363M492.212 293.775H529.22M492.212 325.363V356.952M492.212 325.363H529.22M492.212 356.952V388.54M492.212 356.952H529.22M492.212 388.54V420.129M492.212 388.54H529.22M492.212 420.129V451.718M492.212 420.129H529.22M492.212 451.718V483.306M492.212 451.718H529.22M492.212 483.306V514.895M492.212 483.306H529.22M492.212 514.895V546.484M492.212 514.895H529.22M492.212 546.484V578.072M492.212 546.484H529.22M492.212 578.072V609.661M492.212 578.072H529.22M492.212 609.661V641.25M492.212 609.661H529.22M492.212 641.25H529.22M529.22 9.47656V41.0652M529.22 9.47656H566.228M529.22 41.0652V72.6539M529.22 41.0652H566.228M529.22 72.6539V104.243M529.22 72.6539H566.228M529.22 104.243V135.831M529.22 104.243H566.228M529.22 135.831V167.42M529.22 135.831H566.228M529.22 167.42V199.009M529.22 167.42H566.228M529.22 199.009V230.597M529.22 199.009H566.228M529.22 230.597V262.186M529.22 230.597H566.228M529.22 262.186V293.775M529.22 262.186H566.228M529.22 293.775V325.363M529.22 293.775H566.228M529.22 325.363V356.952M529.22 325.363H566.228M529.22 356.952V388.54M529.22 356.952H566.228M529.22 388.54V420.129M529.22 388.54H566.228M529.22 420.129V451.718M529.22 420.129H566.228M529.22 451.718V483.306M529.22 451.718H566.228M529.22 483.306V514.895M529.22 483.306H566.228M529.22 514.895V546.484M529.22 514.895H566.228M529.22 546.484V578.072M529.22 546.484H566.228M529.22 578.072V609.661M529.22 578.072H566.228M529.22 609.661V641.25M529.22 609.661H566.228M529.22 641.25H566.228M566.228 9.47656V41.0652M566.228 9.47656H603.237M566.228 41.0652V72.6539M566.228 41.0652H603.237M566.228 72.6539V104.243M566.228 72.6539H603.237M566.228 104.243V135.831M566.228 104.243H603.237M566.228 135.831V167.42M566.228 135.831H603.237M566.228 167.42V199.009M566.228 167.42H603.237M566.228 199.009V230.597M566.228 199.009H603.237M566.228 230.597V262.186M566.228 230.597H603.237M566.228 262.186V293.775M566.228 262.186H603.237M566.228 293.775V325.363M566.228 293.775H603.237M566.228 325.363V356.952M566.228 325.363H603.237M566.228 356.952V388.54M566.228 356.952H603.237M566.228 388.54V420.129M566.228 388.54H603.237M566.228 420.129V451.718M566.228 420.129H603.237M566.228 451.718V483.306M566.228 451.718H603.237M566.228 483.306V514.895M566.228 483.306H603.237M566.228 514.895V546.484M566.228 514.895H603.237M566.228 546.484V578.072M566.228 546.484H603.237M566.228 578.072V609.661M566.228 578.072H603.237M566.228 609.661V641.25M566.228 609.661H603.237M566.228 641.25H603.237M603.237 9.47656V41.0652M603.237 9.47656H640.245M603.237 41.0652V72.6539M603.237 41.0652H640.245M603.237 72.6539V104.243M603.237 72.6539H640.245M603.237 104.243V135.831M603.237 104.243H640.245M603.237 135.831V167.42M603.237 135.831H640.245M603.237 167.42V199.009M603.237 167.42H640.245M603.237 199.009V230.597M603.237 199.009H640.245M603.237 230.597V262.186M603.237 230.597H640.245M603.237 262.186V293.775M603.237 262.186H640.245M603.237 293.775V325.363M603.237 293.775H640.245M603.237 325.363V356.952M603.237 325.363H640.245M603.237 356.952V388.54M603.237 356.952H640.245M603.237 388.54V420.129M603.237 388.54H640.245M603.237 420.129V451.718M603.237 420.129H640.245M603.237 451.718V483.306M603.237 451.718H640.245M603.237 483.306V514.895M603.237 483.306H640.245M603.237 514.895V546.484M603.237 514.895H640.245M603.237 546.484V578.072M603.237 546.484H640.245M603.237 578.072V609.661M603.237 578.072H640.245M603.237 609.661V641.25M603.237 609.661H640.245M603.237 641.25H640.245M640.245 9.47656V41.0652M640.245 9.47656H677.254M640.245 41.0652V72.6539M640.245 41.0652H677.254M640.245 72.6539V104.243M640.245 72.6539H677.254M640.245 104.243V135.831M640.245 104.243H677.254M640.245 135.831V167.42M640.245 135.831H677.254M640.245 167.42V199.009M640.245 167.42H677.254M640.245 199.009V230.597M640.245 199.009H677.254M640.245 230.597V262.186M640.245 230.597H677.254M640.245 262.186V293.775M640.245 262.186H677.254M640.245 293.775V325.363M640.245 293.775H677.254M640.245 325.363V356.952M640.245 325.363H677.254M640.245 356.952V388.54M640.245 356.952H677.254M640.245 388.54V420.129M640.245 388.54H677.254M640.245 420.129V451.718M640.245 420.129H677.254M640.245 451.718V483.306M640.245 451.718H677.254M640.245 483.306V514.895M640.245 483.306H677.254M640.245 514.895V546.484M640.245 514.895H677.254M640.245 546.484V578.072M640.245 546.484H677.254M640.245 578.072V609.661M640.245 578.072H677.254M640.245 609.661V641.25M640.245 609.661H677.254M640.245 641.25H677.254M677.254 9.47656V41.0652M677.254 9.47656H714.262M677.254 41.0652V72.6539M677.254 41.0652H714.262M677.254 72.6539V104.243M677.254 72.6539H714.262M677.254 104.243V135.831M677.254 104.243H714.262M677.254 135.831V167.42M677.254 135.831H714.262M677.254 167.42V199.009M677.254 167.42H714.262M677.254 199.009V230.597M677.254 199.009H714.262M677.254 230.597V262.186M677.254 230.597H714.262M677.254 262.186V293.775M677.254 262.186H714.262M677.254 293.775V325.363M677.254 293.775H714.262M677.254 325.363V356.952M677.254 325.363H714.262M677.254 356.952V388.54M677.254 356.952H714.262M677.254 388.54V420.129M677.254 388.54H714.262M677.254 420.129V451.718M677.254 420.129H714.262M677.254 451.718V483.306M677.254 451.718H714.262M677.254 483.306V514.895M677.254 483.306H714.262M677.254 514.895V546.484M677.254 514.895H714.262M677.254 546.484V578.072M677.254 546.484H714.262M677.254 578.072V609.661M677.254 578.072H714.262M677.254 609.661V641.25M677.254 609.661H714.262M677.254 641.25H714.262M714.262 9.47656V41.0652M714.262 9.47656H751.27M714.262 41.0652V72.6539M714.262 41.0652H751.27M714.262 72.6539V104.243M714.262 72.6539H751.27M714.262 104.243V135.831M714.262 104.243H751.27M714.262 135.831V167.42M714.262 135.831H751.27M714.262 167.42V199.009M714.262 167.42H751.27M714.262 199.009V230.597M714.262 199.009H751.27M714.262 230.597V262.186M714.262 230.597H751.27M714.262 262.186V293.775M714.262 262.186H751.27M714.262 293.775V325.363M714.262 293.775H751.27M714.262 325.363V356.952M714.262 325.363H751.27M714.262 356.952V388.54M714.262 356.952H751.27M714.262 388.54V420.129M714.262 388.54H751.27M714.262 420.129V451.718M714.262 420.129H751.27M714.262 451.718V483.306M714.262 451.718H751.27M714.262 483.306V514.895M714.262 483.306H751.27M714.262 514.895V546.484M714.262 514.895H751.27M714.262 546.484V578.072M714.262 546.484H751.27M714.262 578.072V609.661M714.262 578.072H751.27M714.262 609.661V641.25M714.262 609.661H751.27M714.262 641.25H751.27M751.27 9.47656V41.0652M751.27 9.47656H788.279M751.27 41.0652V72.6539M751.27 41.0652H788.279M751.27 72.6539V104.243M751.27 72.6539H788.279M751.27 104.243V135.831M751.27 104.243H788.279M751.27 135.831V167.42M751.27 135.831H788.279M751.27 167.42V199.009M751.27 167.42H788.279M751.27 199.009V230.597M751.27 199.009H788.279M751.27 230.597V262.186M751.27 230.597H788.279M751.27 262.186V293.775M751.27 262.186H788.279M751.27 293.775V325.363M751.27 293.775H788.279M751.27 325.363V356.952M751.27 325.363H788.279M751.27 356.952V388.54M751.27 356.952H788.279M751.27 388.54V420.129M751.27 388.54H788.279M751.27 420.129V451.718M751.27 420.129H788.279M751.27 451.718V483.306M751.27 451.718H788.279M751.27 483.306V514.895M751.27 483.306H788.279M751.27 514.895V546.484M751.27 514.895H788.279M751.27 546.484V578.072M751.27 546.484H788.279M751.27 578.072V609.661M751.27 578.072H788.279M751.27 609.661V641.25M751.27 609.661H788.279M751.27 641.25H788.279M788.279 9.47656V41.0652M788.279 9.47656H825.287M788.279 41.0652V72.6539M788.279 41.0652H825.287M788.279 72.6539V104.243M788.279 72.6539H825.287M788.279 104.243V135.831M788.279 104.243H825.287M788.279 135.831V167.42M788.279 135.831H825.287M788.279 167.42V199.009M788.279 167.42H825.287M788.279 199.009V230.597M788.279 199.009H825.287M788.279 230.597V262.186M788.279 230.597H825.287M788.279 262.186V293.775M788.279 262.186H825.287M788.279 293.775V325.363M788.279 293.775H825.287M788.279 325.363V356.952M788.279 325.363H825.287M788.279 356.952V388.54M788.279 356.952H825.287M788.279 388.54V420.129M788.279 388.54H825.287M788.279 420.129V451.718M788.279 420.129H825.287M788.279 451.718V483.306M788.279 451.718H825.287M788.279 483.306V514.895M788.279 483.306H825.287M788.279 514.895V546.484M788.279 514.895H825.287M788.279 546.484V578.072M788.279 546.484H825.287M788.279 578.072V609.661M788.279 578.072H825.287M788.279 609.661V641.25M788.279 609.661H825.287M788.279 641.25H825.287M825.287 9.47656V41.0652M825.287 9.47656H862.296M825.287 41.0652V72.6539M825.287 41.0652H862.296M825.287 72.6539V104.243M825.287 72.6539H862.296M825.287 104.243V135.831M825.287 104.243H862.296M825.287 135.831V167.42M825.287 135.831H862.296M825.287 167.42V199.009M825.287 167.42H862.296M825.287 199.009V230.597M825.287 199.009H862.296M825.287 230.597V262.186M825.287 230.597H862.296M825.287 262.186V293.775M825.287 262.186H862.296M825.287 293.775V325.363M825.287 293.775H862.296M825.287 325.363V356.952M825.287 325.363H862.296M825.287 356.952V388.54M825.287 356.952H862.296M825.287 388.54V420.129M825.287 388.54H862.296M825.287 420.129V451.718M825.287 420.129H862.296M825.287 451.718V483.306M825.287 451.718H862.296M825.287 483.306V514.895M825.287 483.306H862.296M825.287 514.895V546.484M825.287 514.895H862.296M825.287 546.484V578.072M825.287 546.484H862.296M825.287 578.072V609.661M825.287 578.072H862.296M825.287 609.661V641.25M825.287 609.661H862.296M825.287 641.25H862.296M862.296 9.47656V41.0652M862.296 9.47656H899.304M862.296 41.0652V72.6539M862.296 41.0652H899.304M862.296 72.6539V104.243M862.296 72.6539H899.304M862.296 104.243V135.831M862.296 104.243H899.304M862.296 135.831V167.42M862.296 135.831H899.304M862.296 167.42V199.009M862.296 167.42H899.304M862.296 199.009V230.597M862.296 199.009H899.304M862.296 230.597V262.186M862.296 230.597H899.304M862.296 262.186V293.775M862.296 262.186H899.304M862.296 293.775V325.363M862.296 293.775H899.304M862.296 325.363V356.952M862.296 325.363H899.304M862.296 356.952V388.54M862.296 356.952H899.304M862.296 388.54V420.129M862.296 388.54H899.304M862.296 420.129V451.718M862.296 420.129H899.304M862.296 451.718V483.306M862.296 451.718H899.304M862.296 483.306V514.895M862.296 483.306H899.304M862.296 514.895V546.484M862.296 514.895H899.304M862.296 546.484V578.072M862.296 546.484H899.304M862.296 578.072V609.661M862.296 578.072H899.304M862.296 609.661V641.25M862.296 609.661H899.304M862.296 641.25H899.304M899.304 9.47656V41.0652M899.304 9.47656H936.312M899.304 41.0652V72.6539M899.304 41.0652H936.312M899.304 72.6539V104.243M899.304 72.6539H936.312M899.304 104.243V135.831M899.304 104.243H936.312M899.304 135.831V167.42M899.304 135.831H936.312M899.304 167.42V199.009M899.304 167.42H936.312M899.304 199.009V230.597M899.304 199.009H936.312M899.304 230.597V262.186M899.304 230.597H936.312M899.304 262.186V293.775M899.304 262.186H936.312M899.304 293.775V325.363M899.304 293.775H936.312M899.304 325.363V356.952M899.304 325.363H936.312M899.304 356.952V388.54M899.304 356.952H936.312M899.304 388.54V420.129M899.304 388.54H936.312M899.304 420.129V451.718M899.304 420.129H936.312M899.304 451.718V483.306M899.304 451.718H936.312M899.304 483.306V514.895M899.304 483.306H936.312M899.304 514.895V546.484M899.304 514.895H936.312M899.304 546.484V578.072M899.304 546.484H936.312M899.304 578.072V609.661M899.304 578.072H936.312M899.304 609.661V641.25M899.304 609.661H936.312M899.304 641.25H936.312M936.312 9.47656V41.0652M936.312 9.47656H973.321M936.312 41.0652V72.6539M936.312 41.0652H973.321M936.312 72.6539V104.243M936.312 72.6539H973.321M936.312 104.243V135.831M936.312 104.243H973.321M936.312 135.831V167.42M936.312 135.831H973.321M936.312 167.42V199.009M936.312 167.42H973.321M936.312 199.009V230.597M936.312 199.009H973.321M936.312 230.597V262.186M936.312 230.597H973.321M936.312 262.186V293.775M936.312 262.186H973.321M936.312 293.775V325.363M936.312 293.775H973.321M936.312 325.363V356.952M936.312 325.363H973.321M936.312 356.952V388.54M936.312 356.952H973.321M936.312 388.54V420.129M936.312 388.54H973.321M936.312 420.129V451.718M936.312 420.129H973.321M936.312 451.718V483.306M936.312 451.718H973.321M936.312 483.306V514.895M936.312 483.306H973.321M936.312 514.895V546.484M936.312 514.895H973.321M936.312 546.484V578.072M936.312 546.484H973.321M936.312 578.072V609.661M936.312 578.072H973.321M936.312 609.661V641.25M936.312 609.661H973.321M936.312 641.25H973.321M973.321 9.47656V41.0652M973.321 9.47656H1010.33M973.321 41.0652V72.6539M973.321 41.0652H1010.33M973.321 72.6539V104.243M973.321 72.6539H1010.33M973.321 104.243V135.831M973.321 104.243H1010.33M973.321 135.831V167.42M973.321 135.831H1010.33M973.321 167.42V199.009M973.321 167.42H1010.33M973.321 199.009V230.597M973.321 199.009H1010.33M973.321 230.597V262.186M973.321 230.597H1010.33M973.321 262.186V293.775M973.321 262.186H1010.33M973.321 293.775V325.363M973.321 293.775H1010.33M973.321 325.363V356.952M973.321 325.363H1010.33M973.321 356.952V388.54M973.321 356.952H1010.33M973.321 388.54V420.129M973.321 388.54H1010.33M973.321 420.129V451.718M973.321 420.129H1010.33M973.321 451.718V483.306M973.321 451.718H1010.33M973.321 483.306V514.895M973.321 483.306H1010.33M973.321 514.895V546.484M973.321 514.895H1010.33M973.321 546.484V578.072M973.321 546.484H1010.33M973.321 578.072V609.661M973.321 578.072H1010.33M973.321 609.661V641.25M973.321 609.661H1010.33M973.321 641.25H1010.33M1010.33 9.47656V41.0652M1010.33 9.47656H1047.34M1010.33 41.0652V72.6539M1010.33 41.0652H1047.34M1010.33 72.6539V104.243M1010.33 72.6539H1047.34M1010.33 104.243V135.831M1010.33 104.243H1047.34M1010.33 135.831V167.42M1010.33 135.831H1047.34M1010.33 167.42V199.009M1010.33 167.42H1047.34M1010.33 199.009V230.597M1010.33 199.009H1047.34M1010.33 230.597V262.186M1010.33 230.597H1047.34M1010.33 262.186V293.775M1010.33 262.186H1047.34M1010.33 293.775V325.363M1010.33 293.775H1047.34M1010.33 325.363V356.952M1010.33 325.363H1047.34M1010.33 356.952V388.54M1010.33 356.952H1047.34M1010.33 388.54V420.129M1010.33 388.54H1047.34M1010.33 420.129V451.718M1010.33 420.129H1047.34M1010.33 451.718V483.306M1010.33 451.718H1047.34M1010.33 483.306V514.895M1010.33 483.306H1047.34M1010.33 514.895V546.484M1010.33 514.895H1047.34M1010.33 546.484V578.072M1010.33 546.484H1047.34M1010.33 578.072V609.661M1010.33 578.072H1047.34M1010.33 609.661V641.25M1010.33 609.661H1047.34M1010.33 641.25H1047.34M1047.34 9.47656V41.0652M1047.34 9.47656H1084.35M1047.34 41.0652V72.6539M1047.34 41.0652H1084.35M1047.34 72.6539V104.243M1047.34 72.6539H1084.35M1047.34 104.243V135.831M1047.34 104.243H1084.35M1047.34 135.831V167.42M1047.34 135.831H1084.35M1047.34 167.42V199.009M1047.34 167.42H1084.35M1047.34 199.009V230.597M1047.34 199.009H1084.35M1047.34 230.597V262.186M1047.34 230.597H1084.35M1047.34 262.186V293.775M1047.34 262.186H1084.35M1047.34 293.775V325.363M1047.34 293.775H1084.35M1047.34 325.363V356.952M1047.34 325.363H1084.35M1047.34 356.952V388.54M1047.34 356.952H1084.35M1047.34 388.54V420.129M1047.34 388.54H1084.35M1047.34 420.129V451.718M1047.34 420.129H1084.35M1047.34 451.718V483.306M1047.34 451.718H1084.35M1047.34 483.306V514.895M1047.34 483.306H1084.35M1047.34 514.895V546.484M1047.34 514.895H1084.35M1047.34 546.484V578.072M1047.34 546.484H1084.35M1047.34 578.072V609.661M1047.34 578.072H1084.35M1047.34 609.661V641.25M1047.34 609.661H1084.35M1047.34 641.25H1084.35M1084.35 9.47656V41.0652M1084.35 9.47656H1121.35M1084.35 41.0652V72.6539M1084.35 41.0652H1121.35M1084.35 72.6539V104.243M1084.35 72.6539H1121.35M1084.35 104.243V135.831M1084.35 104.243H1121.35M1084.35 135.831V167.42M1084.35 135.831H1121.35M1084.35 167.42V199.009M1084.35 167.42H1121.35M1084.35 199.009V230.597M1084.35 199.009H1121.35M1084.35 230.597V262.186M1084.35 230.597H1121.35M1084.35 262.186V293.775M1084.35 262.186H1121.35M1084.35 293.775V325.363M1084.35 293.775H1121.35M1084.35 325.363V356.952M1084.35 325.363H1121.35M1084.35 356.952V388.54M1084.35 356.952H1121.35M1084.35 388.54V420.129M1084.35 388.54H1121.35M1084.35 420.129V451.718M1084.35 420.129H1121.35M1084.35 451.718V483.306M1084.35 451.718H1121.35M1084.35 483.306V514.895M1084.35 483.306H1121.35M1084.35 514.895V546.484M1084.35 514.895H1121.35M1084.35 546.484V578.072M1084.35 546.484H1121.35M1084.35 578.072V609.661M1084.35 578.072H1121.35M1084.35 609.661V641.25M1084.35 609.661H1121.35M1084.35 641.25H1121.35M1121.35 9.47656V41.0652M1121.35 9.47656H1158.36M1121.35 41.0652V72.6539M1121.35 41.0652H1158.36M1121.35 72.6539V104.243M1121.35 72.6539H1158.36M1121.35 104.243V135.831M1121.35 104.243H1158.36M1121.35 135.831V167.42M1121.35 135.831H1158.36M1121.35 167.42V199.009M1121.35 167.42H1158.36M1121.35 199.009V230.597M1121.35 199.009H1158.36M1121.35 230.597V262.186M1121.35 230.597H1158.36M1121.35 262.186V293.775M1121.35 262.186H1158.36M1121.35 293.775V325.363M1121.35 293.775H1158.36M1121.35 325.363V356.952M1121.35 325.363H1158.36M1121.35 356.952V388.54M1121.35 356.952H1158.36M1121.35 388.54V420.129M1121.35 388.54H1158.36M1121.35 420.129V451.718M1121.35 420.129H1158.36M1121.35 451.718V483.306M1121.35 451.718H1158.36M1121.35 483.306V514.895M1121.35 483.306H1158.36M1121.35 514.895V546.484M1121.35 514.895H1158.36M1121.35 546.484V578.072M1121.35 546.484H1158.36M1121.35 578.072V609.661M1121.35 578.072H1158.36M1121.35 609.661V641.25M1121.35 609.661H1158.36M1121.35 641.25H1158.36M1158.36 9.47656V41.0652M1158.36 9.47656H1195.37M1158.36 41.0652V72.6539M1158.36 41.0652H1195.37M1158.36 72.6539V104.243M1158.36 72.6539H1195.37M1158.36 104.243V135.831M1158.36 104.243H1195.37M1158.36 135.831V167.42M1158.36 135.831H1195.37M1158.36 167.42V199.009M1158.36 167.42H1195.37M1158.36 199.009V230.597M1158.36 199.009H1195.37M1158.36 230.597V262.186M1158.36 230.597H1195.37M1158.36 262.186V293.775M1158.36 262.186H1195.37M1158.36 293.775V325.363M1158.36 293.775H1195.37M1158.36 325.363V356.952M1158.36 325.363H1195.37M1158.36 356.952V388.54M1158.36 356.952H1195.37M1158.36 388.54V420.129M1158.36 388.54H1195.37M1158.36 420.129V451.718M1158.36 420.129H1195.37M1158.36 451.718V483.306M1158.36 451.718H1195.37M1158.36 483.306V514.895M1158.36 483.306H1195.37M1158.36 514.895V546.484M1158.36 514.895H1195.37M1158.36 546.484V578.072M1158.36 546.484H1195.37M1158.36 578.072V609.661M1158.36 578.072H1195.37M1158.36 609.661V641.25M1158.36 609.661H1195.37M1158.36 641.25H1195.37M1195.37 9.47656V41.0652M1195.37 9.47656H1232.38M1195.37 41.0652V72.6539M1195.37 41.0652H1232.38M1195.37 72.6539V104.243M1195.37 72.6539H1232.38M1195.37 104.243V135.831M1195.37 104.243H1232.38M1195.37 135.831V167.42M1195.37 135.831H1232.38M1195.37 167.42V199.009M1195.37 167.42H1232.38M1195.37 199.009V230.597M1195.37 199.009H1232.38M1195.37 230.597V262.186M1195.37 230.597H1232.38M1195.37 262.186V293.775M1195.37 262.186H1232.38M1195.37 293.775V325.363M1195.37 293.775H1232.38M1195.37 325.363V356.952M1195.37 325.363H1232.38M1195.37 356.952V388.54M1195.37 356.952H1232.38M1195.37 388.54V420.129M1195.37 388.54H1232.38M1195.37 420.129V451.718M1195.37 420.129H1232.38M1195.37 451.718V483.306M1195.37 451.718H1232.38M1195.37 483.306V514.895M1195.37 483.306H1232.38M1195.37 514.895V546.484M1195.37 514.895H1232.38M1195.37 546.484V578.072M1195.37 546.484H1232.38M1195.37 578.072V609.661M1195.37 578.072H1232.38M1195.37 609.661V641.25M1195.37 609.661H1232.38M1195.37 641.25H1232.38M1232.38 9.47656V41.0652M1232.38 9.47656H1269.39M1232.38 41.0652V72.6539M1232.38 41.0652H1269.39M1232.38 72.6539V104.243M1232.38 72.6539H1269.39M1232.38 104.243V135.831M1232.38 104.243H1269.39M1232.38 135.831V167.42M1232.38 135.831H1269.39M1232.38 167.42V199.009M1232.38 167.42H1269.39M1232.38 199.009V230.597M1232.38 199.009H1269.39M1232.38 230.597V262.186M1232.38 230.597H1269.39M1232.38 262.186V293.775M1232.38 262.186H1269.39M1232.38 293.775V325.363M1232.38 293.775H1269.39M1232.38 325.363V356.952M1232.38 325.363H1269.39M1232.38 356.952V388.54M1232.38 356.952H1269.39M1232.38 388.54V420.129M1232.38 388.54H1269.39M1232.38 420.129V451.718M1232.38 420.129H1269.39M1232.38 451.718V483.306M1232.38 451.718H1269.39M1232.38 483.306V514.895M1232.38 483.306H1269.39M1232.38 514.895V546.484M1232.38 514.895H1269.39M1232.38 546.484V578.072M1232.38 546.484H1269.39M1232.38 578.072V609.661M1232.38 578.072H1269.39M1232.38 609.661V641.25M1232.38 609.661H1269.39M1232.38 641.25H1269.39M1269.39 9.47656V41.0652M1269.39 9.47656H1306.4M1269.39 41.0652V72.6539M1269.39 41.0652H1306.4M1269.39 72.6539V104.243M1269.39 72.6539H1306.4M1269.39 104.243V135.831M1269.39 104.243H1306.4M1269.39 135.831V167.42M1269.39 135.831H1306.4M1269.39 167.42V199.009M1269.39 167.42H1306.4M1269.39 199.009V230.597M1269.39 199.009H1306.4M1269.39 230.597V262.186M1269.39 230.597H1306.4M1269.39 262.186V293.775M1269.39 262.186H1306.4M1269.39 293.775V325.363M1269.39 293.775H1306.4M1269.39 325.363V356.952M1269.39 325.363H1306.4M1269.39 356.952V388.54M1269.39 356.952H1306.4M1269.39 388.54V420.129M1269.39 388.54H1306.4M1269.39 420.129V451.718M1269.39 420.129H1306.4M1269.39 451.718V483.306M1269.39 451.718H1306.4M1269.39 483.306V514.895M1269.39 483.306H1306.4M1269.39 514.895V546.484M1269.39 514.895H1306.4M1269.39 546.484V578.072M1269.39 546.484H1306.4M1269.39 578.072V609.661M1269.39 578.072H1306.4M1269.39 609.661V641.25M1269.39 609.661H1306.4M1269.39 641.25H1306.4M1306.4 9.47656V41.0652M1306.4 9.47656H1343.4M1306.4 41.0652V72.6539M1306.4 41.0652H1343.4M1306.4 72.6539V104.243M1306.4 72.6539H1343.4M1306.4 104.243V135.831M1306.4 104.243H1343.4M1306.4 135.831V167.42M1306.4 135.831H1343.4M1306.4 167.42V199.009M1306.4 167.42H1343.4M1306.4 199.009V230.597M1306.4 199.009H1343.4M1306.4 230.597V262.186M1306.4 230.597H1343.4M1306.4 262.186V293.775M1306.4 262.186H1343.4M1306.4 293.775V325.363M1306.4 293.775H1343.4M1306.4 325.363V356.952M1306.4 325.363H1343.4M1306.4 356.952V388.54M1306.4 356.952H1343.4M1306.4 388.54V420.129M1306.4 388.54H1343.4M1306.4 420.129V451.718M1306.4 420.129H1343.4M1306.4 451.718V483.306M1306.4 451.718H1343.4M1306.4 483.306V514.895M1306.4 483.306H1343.4M1306.4 514.895V546.484M1306.4 514.895H1343.4M1306.4 546.484V578.072M1306.4 546.484H1343.4M1306.4 578.072V609.661M1306.4 578.072H1343.4M1306.4 609.661V641.25M1306.4 609.661H1343.4M1306.4 641.25H1343.4M1343.4 9.47656V41.0652M1343.4 9.47656H1380.41M1343.4 41.0652V72.6539M1343.4 41.0652H1380.41M1343.4 72.6539V104.243M1343.4 72.6539H1380.41M1343.4 104.243V135.831M1343.4 104.243H1380.41M1343.4 135.831V167.42M1343.4 135.831H1380.41M1343.4 167.42V199.009M1343.4 167.42H1380.41M1343.4 199.009V230.597M1343.4 199.009H1380.41M1343.4 230.597V262.186M1343.4 230.597H1380.41M1343.4 262.186V293.775M1343.4 262.186H1380.41M1343.4 293.775V325.363M1343.4 293.775H1380.41M1343.4 325.363V356.952M1343.4 325.363H1380.41M1343.4 356.952V388.54M1343.4 356.952H1380.41M1343.4 388.54V420.129M1343.4 388.54H1380.41M1343.4 420.129V451.718M1343.4 420.129H1380.41M1343.4 451.718V483.306M1343.4 451.718H1380.41M1343.4 483.306V514.895M1343.4 483.306H1380.41M1343.4 514.895V546.484M1343.4 514.895H1380.41M1343.4 546.484V578.072M1343.4 546.484H1380.41M1343.4 578.072V609.661M1343.4 578.072H1380.41M1343.4 609.661V641.25M1343.4 609.661H1380.41M1343.4 641.25H1380.41M1380.41 9.47656V41.0652M1380.41 9.47656H1417.42M1380.41 41.0652V72.6539M1380.41 41.0652H1417.42M1380.41 72.6539V104.243M1380.41 72.6539H1417.42M1380.41 104.243V135.831M1380.41 104.243H1417.42M1380.41 135.831V167.42M1380.41 135.831H1417.42M1380.41 167.42V199.009M1380.41 167.42H1417.42M1380.41 199.009V230.597M1380.41 199.009H1417.42M1380.41 230.597V262.186M1380.41 230.597H1417.42M1380.41 262.186V293.775M1380.41 262.186H1417.42M1380.41 293.775V325.363M1380.41 293.775H1417.42M1380.41 325.363V356.952M1380.41 325.363H1417.42M1380.41 356.952V388.54M1380.41 356.952H1417.42M1380.41 388.54V420.129M1380.41 388.54H1417.42M1380.41 420.129V451.718M1380.41 420.129H1417.42M1380.41 451.718V483.306M1380.41 451.718H1417.42M1380.41 483.306V514.895M1380.41 483.306H1417.42M1380.41 514.895V546.484M1380.41 514.895H1417.42M1380.41 546.484V578.072M1380.41 546.484H1417.42M1380.41 578.072V609.661M1380.41 578.072H1417.42M1380.41 609.661V641.25M1380.41 609.661H1417.42M1380.41 641.25H1417.42M1417.42 9.47656V41.0652M1417.42 9.47656H1454.43M1417.42 41.0652V72.6539M1417.42 41.0652H1454.43M1417.42 72.6539V104.243M1417.42 72.6539H1454.43M1417.42 104.243V135.831M1417.42 104.243H1454.43M1417.42 135.831V167.42M1417.42 135.831H1454.43M1417.42 167.42V199.009M1417.42 167.42H1454.43M1417.42 199.009V230.597M1417.42 199.009H1454.43M1417.42 230.597V262.186M1417.42 230.597H1454.43M1417.42 262.186V293.775M1417.42 262.186H1454.43M1417.42 293.775V325.363M1417.42 293.775H1454.43M1417.42 325.363V356.952M1417.42 325.363H1454.43M1417.42 356.952V388.54M1417.42 356.952H1454.43M1417.42 388.54V420.129M1417.42 388.54H1454.43M1417.42 420.129V451.718M1417.42 420.129H1454.43M1417.42 451.718V483.306M1417.42 451.718H1454.43M1417.42 483.306V514.895M1417.42 483.306H1454.43M1417.42 514.895V546.484M1417.42 514.895H1454.43M1417.42 546.484V578.072M1417.42 546.484H1454.43M1417.42 578.072V609.661M1417.42 578.072H1454.43M1417.42 609.661V641.25M1417.42 609.661H1454.43M1417.42 641.25H1454.43M1454.43 9.47656V41.0652M1454.43 9.47656H1491.44M1454.43 41.0652V72.6539M1454.43 41.0652H1491.44M1454.43 72.6539V104.243M1454.43 72.6539H1491.44M1454.43 104.243V135.831M1454.43 104.243H1491.44M1454.43 135.831V167.42M1454.43 135.831H1491.44M1454.43 167.42V199.009M1454.43 167.42H1491.44M1454.43 199.009V230.597M1454.43 199.009H1491.44M1454.43 230.597V262.186M1454.43 230.597H1491.44M1454.43 262.186V293.775M1454.43 262.186H1491.44M1454.43 293.775V325.363M1454.43 293.775H1491.44M1454.43 325.363V356.952M1454.43 325.363H1491.44M1454.43 356.952V388.54M1454.43 356.952H1491.44M1454.43 388.54V420.129M1454.43 388.54H1491.44M1454.43 420.129V451.718M1454.43 420.129H1491.44M1454.43 451.718V483.306M1454.43 451.718H1491.44M1454.43 483.306V514.895M1454.43 483.306H1491.44M1454.43 514.895V546.484M1454.43 514.895H1491.44M1454.43 546.484V578.072M1454.43 546.484H1491.44M1454.43 578.072V609.661M1454.43 578.072H1491.44M1454.43 609.661V641.25M1454.43 609.661H1491.44M1454.43 641.25H1491.44M1491.44 9.47656V41.0652M1491.44 9.47656H1528.45M1491.44 41.0652V72.6539M1491.44 41.0652H1528.45M1491.44 72.6539V104.243M1491.44 72.6539H1528.45M1491.44 104.243V135.831M1491.44 104.243H1528.45M1491.44 135.831V167.42M1491.44 135.831H1528.45M1491.44 167.42V199.009M1491.44 167.42H1528.45M1491.44 199.009V230.597M1491.44 199.009H1528.45M1491.44 230.597V262.186M1491.44 230.597H1528.45M1491.44 262.186V293.775M1491.44 262.186H1528.45M1491.44 293.775V325.363M1491.44 293.775H1528.45M1491.44 325.363V356.952M1491.44 325.363H1528.45M1491.44 356.952V388.54M1491.44 356.952H1528.45M1491.44 388.54V420.129M1491.44 388.54H1528.45M1491.44 420.129V451.718M1491.44 420.129H1528.45M1491.44 451.718V483.306M1491.44 451.718H1528.45M1491.44 483.306V514.895M1491.44 483.306H1528.45M1491.44 514.895V546.484M1491.44 514.895H1528.45M1491.44 546.484V578.072M1491.44 546.484H1528.45M1491.44 578.072V609.661M1491.44 578.072H1528.45M1491.44 609.661V641.25M1491.44 609.661H1528.45M1491.44 641.25H1528.45M1528.45 9.47656V41.0652M1528.45 9.47656H1565.45M1528.45 41.0652V72.6539M1528.45 41.0652H1565.45M1528.45 72.6539V104.243M1528.45 72.6539H1565.45M1528.45 104.243V135.831M1528.45 104.243H1565.45M1528.45 135.831V167.42M1528.45 135.831H1565.45M1528.45 167.42V199.009M1528.45 167.42H1565.45M1528.45 199.009V230.597M1528.45 199.009H1565.45M1528.45 230.597V262.186M1528.45 230.597H1565.45M1528.45 262.186V293.775M1528.45 262.186H1565.45M1528.45 293.775V325.363M1528.45 293.775H1565.45M1528.45 325.363V356.952M1528.45 325.363H1565.45M1528.45 356.952V388.54M1528.45 356.952H1565.45M1528.45 388.54V420.129M1528.45 388.54H1565.45M1528.45 420.129V451.718M1528.45 420.129H1565.45M1528.45 451.718V483.306M1528.45 451.718H1565.45M1528.45 483.306V514.895M1528.45 483.306H1565.45M1528.45 514.895V546.484M1528.45 514.895H1565.45M1528.45 546.484V578.072M1528.45 546.484H1565.45M1528.45 578.072V609.661M1528.45 578.072H1565.45M1528.45 609.661V641.25M1528.45 609.661H1565.45M1528.45 641.25H1565.45M1565.45 9.47656V41.0652M1565.45 9.47656H1602.46M1565.45 41.0652V72.6539M1565.45 41.0652H1602.46M1565.45 72.6539V104.243M1565.45 72.6539H1602.46M1565.45 104.243V135.831M1565.45 104.243H1602.46M1565.45 135.831V167.42M1565.45 135.831H1602.46M1565.45 167.42V199.009M1565.45 167.42H1602.46M1565.45 199.009V230.597M1565.45 199.009H1602.46M1565.45 230.597V262.186M1565.45 230.597H1602.46M1565.45 262.186V293.775M1565.45 262.186H1602.46M1565.45 293.775V325.363M1565.45 293.775H1602.46M1565.45 325.363V356.952M1565.45 325.363H1602.46M1565.45 356.952V388.54M1565.45 356.952H1602.46M1565.45 388.54V420.129M1565.45 388.54H1602.46M1565.45 420.129V451.718M1565.45 420.129H1602.46M1565.45 451.718V483.306M1565.45 451.718H1602.46M1565.45 483.306V514.895M1565.45 483.306H1602.46M1565.45 514.895V546.484M1565.45 514.895H1602.46M1565.45 546.484V578.072M1565.45 546.484H1602.46M1565.45 578.072V609.661M1565.45 578.072H1602.46M1565.45 609.661V641.25M1565.45 609.661H1602.46M1565.45 641.25H1602.46M1602.46 9.47656V41.0652M1602.46 9.47656H1639.47V41.0652M1602.46 41.0652V72.6539M1602.46 41.0652H1639.47M1602.46 72.6539V104.243M1602.46 72.6539H1639.47M1602.46 104.243V135.831M1602.46 104.243H1639.47M1602.46 135.831V167.42M1602.46 135.831H1639.47M1602.46 167.42V199.009M1602.46 167.42H1639.47M1602.46 199.009V230.597M1602.46 199.009H1639.47M1602.46 230.597V262.186M1602.46 230.597H1639.47M1602.46 262.186V293.775M1602.46 262.186H1639.47M1602.46 293.775V325.363M1602.46 293.775H1639.47M1602.46 325.363V356.952M1602.46 325.363H1639.47M1602.46 356.952V388.54M1602.46 356.952H1639.47M1602.46 388.54V420.129M1602.46 388.54H1639.47M1602.46 420.129V451.718M1602.46 420.129H1639.47M1602.46 451.718V483.306M1602.46 451.718H1639.47M1602.46 483.306V514.895M1602.46 483.306H1639.47M1602.46 514.895V546.484M1602.46 514.895H1639.47M1602.46 546.484V578.072M1602.46 546.484H1639.47M1602.46 578.072V609.661M1602.46 578.072H1639.47M1602.46 609.661V641.25M1602.46 609.661H1639.47M1602.46 641.25H1639.47V609.661M1639.47 41.0652V72.6539M1639.47 72.6539V104.243M1639.47 104.243V135.831M1639.47 135.831V167.42M1639.47 167.42V199.009M1639.47 199.009V230.597M1639.47 230.597V262.186M1639.47 262.186V293.775M1639.47 293.775V325.363M1639.47 325.363V356.952M1639.47 356.952V388.54M1639.47 388.54V420.129M1639.47 420.129V451.718M1639.47 451.718V483.306M1639.47 483.306V514.895M1639.47 514.895V546.484M1639.47 546.484V578.072M1639.47 578.072V609.661" stroke="url(#paint0_radial_149_159)" stroke-opacity="0.2" stroke-width="0.805493"/>
</g>
<g style="mix-blend-mode:soft-light" opacity="0.8">
<path d="M159.136 126.355V135.831M159.136 135.831V145.308M159.136 135.831H148.034M159.136 135.831H170.239M159.136 379.064V388.541M159.136 388.541V398.017M159.136 388.541H148.034M159.136 388.541H170.239M159.136 631.773V641.25M159.136 641.25V650.726M159.136 641.25H148.034M159.136 641.25H170.239M455.203 126.355V135.831M455.203 135.831V145.308M455.203 135.831H444.101M455.203 135.831H466.306M455.203 379.064V388.541M455.203 388.541V398.017M455.203 388.541H444.101M455.203 388.541H466.306M455.203 631.773V641.25M455.203 641.25V650.726M455.203 641.25H444.101M455.203 641.25H466.306M751.27 126.355V135.831M751.27 135.831V145.308M751.27 135.831H740.168M751.27 135.831H762.373M751.27 379.064V388.541M751.27 388.541V398.017M751.27 388.541H740.168M751.27 388.541H762.373M751.27 631.773V641.25M751.27 641.25V650.726M751.27 641.25H740.168M751.27 641.25H762.373M1047.34 126.355V135.831M1047.34 135.831V145.308M1047.34 135.831H1036.24M1047.34 135.831H1058.44M1047.34 379.064V388.541M1047.34 388.541V398.017M1047.34 388.541H1036.24M1047.34 388.541H1058.44M1047.34 631.773V641.25M1047.34 641.25V650.726M1047.34 641.25H1036.24M1047.34 641.25H1058.44M1343.4 126.355V135.831M1343.4 135.831V145.308M1343.4 135.831H1332.3M1343.4 135.831H1354.51M1343.4 379.064V388.541M1343.4 388.541V398.017M1343.4 388.541H1332.3M1343.4 388.541H1354.51M1343.4 631.773V641.25M1343.4 641.25V650.726M1343.4 641.25H1332.3M1343.4 641.25H1354.51M1639.47 126.355V135.831M1639.47 135.831V145.308M1639.47 135.831H1628.37M1639.47 135.831H1650.57M1639.47 379.064V388.541M1639.47 388.541V398.017M1639.47 388.541H1628.37M1639.47 388.541H1650.57M1639.47 631.773V641.25M1639.47 641.25V650.726M1639.47 641.25H1628.37M1639.47 641.25H1650.57M159.136 0V9.4766M159.136 9.4766V18.9532M159.136 9.4766H148.034M159.136 9.4766H170.239M159.136 252.709V262.186M159.136 262.186V271.663M159.136 262.186H148.034M159.136 262.186H170.239M159.136 505.418V514.895M159.136 514.895V524.372M159.136 514.895H148.034M159.136 514.895H170.239M455.203 0V9.4766M455.203 9.4766V18.9532M455.203 9.4766H444.101M455.203 9.4766H466.306M455.203 252.709V262.186M455.203 262.186V271.663M455.203 262.186H444.101M455.203 262.186H466.306M455.203 505.418V514.895M455.203 514.895V524.372M455.203 514.895H444.101M455.203 514.895H466.306M751.27 0V9.4766M751.27 9.4766V18.9532M751.27 9.4766H740.168M751.27 9.4766H762.373M751.27 252.709V262.186M751.27 262.186V271.663M751.27 262.186H740.168M751.27 262.186H762.373M751.27 505.418V514.895M751.27 514.895V524.372M751.27 514.895H740.168M751.27 514.895H762.373M1047.34 0V9.4766M1047.34 9.4766V18.9532M1047.34 9.4766H1036.24M1047.34 9.4766H1058.44M1047.34 252.709V262.186M1047.34 262.186V271.663M1047.34 262.186H1036.24M1047.34 262.186H1058.44M1047.34 505.418V514.895M1047.34 514.895V524.372M1047.34 514.895H1036.24M1047.34 514.895H1058.44M1343.4 0V9.4766M1343.4 9.4766V18.9532M1343.4 9.4766H1332.3M1343.4 9.4766H1354.51M1343.4 252.709V262.186M1343.4 262.186V271.663M1343.4 262.186H1332.3M1343.4 262.186H1354.51M1343.4 505.418V514.895M1343.4 514.895V524.372M1343.4 514.895H1332.3M1343.4 514.895H1354.51M1639.47 0V9.4766M1639.47 9.4766V18.9532M1639.47 9.4766H1628.37M1639.47 9.4766H1650.57M1639.47 252.709V262.186M1639.47 262.186V271.663M1639.47 262.186H1628.37M1639.47 262.186H1650.57M1639.47 505.418V514.895M1639.47 514.895V524.372M1639.47 514.895H1628.37M1639.47 514.895H1650.57M11.1025 126.355V135.831M11.1025 135.831V145.308M11.1025 135.831H0M11.1025 135.831H22.205M11.1025 379.064V388.541M11.1025 388.541V398.017M11.1025 388.541H0M11.1025 388.541H22.205M11.1025 631.773V641.25M11.1025 641.25V650.726M11.1025 641.25H0M11.1025 641.25H22.205M307.17 126.355V135.831M307.17 135.831V145.308M307.17 135.831H296.067M307.17 135.831H318.272M307.17 379.064V388.541M307.17 388.541V398.017M307.17 388.541H296.067M307.17 388.541H318.272M307.17 631.773V641.25M307.17 641.25V650.726M307.17 641.25H296.067M307.17 641.25H318.272M603.237 126.355V135.831M603.237 135.831V145.308M603.237 135.831H592.134M603.237 135.831H614.339M603.237 379.064V388.541M603.237 388.541V398.017M603.237 388.541H592.134M603.237 388.541H614.339M603.237 631.773V641.25M603.237 641.25V650.726M603.237 641.25H592.134M603.237 641.25H614.339M899.304 126.355V135.831M899.304 135.831V145.308M899.304 135.831H888.201M899.304 135.831H910.407M899.304 379.064V388.541M899.304 388.541V398.017M899.304 388.541H888.201M899.304 388.541H910.407M899.304 631.773V641.25M899.304 641.25V650.726M899.304 641.25H888.201M899.304 641.25H910.407M1195.37 126.355V135.831M1195.37 135.831V145.308M1195.37 135.831H1184.27M1195.37 135.831H1206.47M1195.37 379.064V388.541M1195.37 388.541V398.017M1195.37 388.541H1184.27M1195.37 388.541H1206.47M1195.37 631.773V641.25M1195.37 641.25V650.726M1195.37 641.25H1184.27M1195.37 641.25H1206.47M1491.44 126.355V135.831M1491.44 135.831V145.308M1491.44 135.831H1480.34M1491.44 135.831H1502.54M1491.44 379.064V388.541M1491.44 388.541V398.017M1491.44 388.541H1480.34M1491.44 388.541H1502.54M1491.44 631.773V641.25M1491.44 641.25V650.726M1491.44 641.25H1480.34M1491.44 641.25H1502.54M11.1025 4.65871e-05V9.47665M11.1025 9.47665V18.9532M11.1025 9.47665H0M11.1025 9.47665H22.205M11.1025 252.709V262.186M11.1025 262.186V271.663M11.1025 262.186H0M11.1025 262.186H22.205M11.1025 505.418V514.895M11.1025 514.895V524.372M11.1025 514.895H0M11.1025 514.895H22.205M307.17 0V9.4766M307.17 9.4766V18.9532M307.17 9.4766H296.067M307.17 9.4766H318.272M307.17 252.709V262.186M307.17 262.186V271.663M307.17 262.186H296.067M307.17 262.186H318.272M307.17 505.418V514.895M307.17 514.895V524.372M307.17 514.895H296.067M307.17 514.895H318.272M603.237 0V9.4766M603.237 9.4766V18.9532M603.237 9.4766H592.134M603.237 9.4766H614.339M603.237 252.709V262.186M603.237 262.186V271.663M603.237 262.186H592.134M603.237 262.186H614.339M603.237 505.418V514.895M603.237 514.895V524.372M603.237 514.895H592.134M603.237 514.895H614.339M899.304 0V9.4766M899.304 9.4766V18.9532M899.304 9.4766H888.201M899.304 9.4766H910.407M899.304 252.709V262.186M899.304 262.186V271.663M899.304 262.186H888.201M899.304 262.186H910.407M899.304 505.418V514.895M899.304 514.895V524.372M899.304 514.895H888.201M899.304 514.895H910.407M1195.37 0V9.4766M1195.37 9.4766V18.9532M1195.37 9.4766H1184.27M1195.37 9.4766H1206.47M1195.37 252.709V262.186M1195.37 262.186V271.663M1195.37 262.186H1184.27M1195.37 262.186H1206.47M1195.37 505.418V514.895M1195.37 514.895V524.372M1195.37 514.895H1184.27M1195.37 514.895H1206.47M1491.44 0V9.4766M1491.44 9.4766V18.9532M1491.44 9.4766H1480.34M1491.44 9.4766H1502.54M1491.44 252.709V262.186M1491.44 262.186V271.663M1491.44 262.186H1480.34M1491.44 262.186H1502.54M1491.44 505.418V514.895M1491.44 514.895V524.372M1491.44 514.895H1480.34M1491.44 514.895H1502.54" stroke="url(#paint1_radial_149_159)" stroke-opacity="0.2" stroke-width="1.61099"/>
</g>
</g>
<defs>
<radialGradient id="paint0_radial_149_159" cx="0" cy="0" r="1" gradientUnits="userSpaceOnUse" gradientTransform="translate(825.287 325.363) rotate(90) scale(315.887 814.185)">
<stop stop-color="white"/>
<stop offset="1" stop-color="white" stop-opacity="0"/>
</radialGradient>
<radialGradient id="paint1_radial_149_159" cx="0" cy="0" r="1" gradientUnits="userSpaceOnUse" gradientTransform="translate(825.287 325.363) rotate(90) scale(325.363 825.287)">
<stop stop-color="white"/>
<stop offset="1" stop-color="white" stop-opacity="0"/>
</radialGradient>
</defs>
</svg>
