<svg width="84" height="84" viewBox="0 0 84 84" fill="none" xmlns="http://www.w3.org/2000/svg">
<path d="M52.14 54.9084C52.14 63.8004 48.591 67.3494 39.699 67.3494H29.091C20.238 67.3494 16.65 63.8004 16.65 54.9084V44.2614C16.65 35.4084 20.199 31.8594 29.091 31.8594H39.738C48.591 31.8594 52.14 35.4084 52.14 44.2614V54.9084Z" stroke="#F7F7F7" stroke-width="4.5" stroke-linecap="round" stroke-linejoin="round"/>
<path d="M67.35 39.6989C67.35 48.5909 63.801 52.1399 54.909 52.1399H52.14V44.2619C52.14 35.4089 48.591 31.8599 39.699 31.8599H31.86V29.0519C31.86 20.1599 35.409 16.6499 44.301 16.6499H54.948C63.801 16.6499 67.35 20.1989 67.35 29.0519V39.6989Z" stroke="#F7F7F7" stroke-width="4.5" stroke-linecap="round" stroke-linejoin="round"/>
<path d="M81 53.7002C81 68.7932 68.793 81.0002 53.7 81.0002L57.7949 74.1752" stroke="#F7F7F7" stroke-width="4.5" stroke-linecap="round" stroke-linejoin="round"/>
<path d="M3 30.3C3 15.207 15.207 3 30.3 3L26.205 9.825" stroke="#F7F7F7" stroke-width="4.5" stroke-linecap="round" stroke-linejoin="round"/>
</svg>
