<svg width="70" height="70" viewBox="0 0 70 70" fill="none" xmlns="http://www.w3.org/2000/svg">
<path d="M64.0875 51.9C61.4225 56.3525 56.515 59.375 50.86 59.375C47.805 59.375 44.945 58.465 42.54 56.8725C40.525 55.6375 38.8675 53.915 37.665 51.9C36.235 49.56 35.4225 46.83 35.4225 43.9375C35.4225 35.4225 42.345 28.5 50.86 28.5C52.03 28.5 53.1674 28.63 54.2399 28.89C61.1624 30.4175 66.2975 36.5925 66.2975 43.9375C66.2975 46.83 65.5175 49.56 64.0875 51.9Z" stroke="#F7F7F7" stroke-width="4.5" stroke-linecap="round" stroke-linejoin="round"/>
<path d="M44.8476 43.9374L48.65 47.74L56.8724 40.1349" stroke="#F7F7F7" stroke-width="4.5" stroke-linecap="round" stroke-linejoin="round"/>
<path d="M63.2427 16.28C63.2427 18.9125 61.5852 22.195 59.9602 23.8525L54.2401 28.89C53.1676 28.63 52.0302 28.5 50.8602 28.5C42.3452 28.5 35.4227 35.4225 35.4227 43.9375C35.4227 46.83 36.2352 49.56 37.6652 51.9C38.8677 53.915 40.5252 55.6375 42.5402 56.8725V57.9775C42.5402 59.96 41.2401 62.5925 39.5826 63.5675L35.0002 66.525C30.7427 69.1575 24.8277 66.2 24.8277 60.935V43.5475C24.8277 41.24 23.4952 38.2825 22.1952 36.6575L9.7151 23.5275C8.0901 21.87 6.75769 18.9125 6.75769 16.9625V9.38998C6.75769 5.45748 9.71525 2.5 13.3228 2.5H56.6776C60.2851 2.5 63.2427 5.45746 63.2427 9.06496V16.28Z" stroke="#F7F7F7" stroke-width="4.5" stroke-linecap="round" stroke-linejoin="round"/>
</svg>
