<svg width="80" height="80" viewBox="0 0 80 80" fill="none" xmlns="http://www.w3.org/2000/svg">
<path fill-rule="evenodd" clip-rule="evenodd" d="M69.75 47.5003C65.6539 47.5003 62.3334 44.1798 62.3334 40.0837C62.3334 35.9875 65.6539 32.667 69.75 32.667C73.8462 32.667 77.1667 35.9875 77.1667 40.0837C77.1667 44.1798 73.8462 47.5003 69.75 47.5003Z" stroke="#F7F7F7" stroke-width="4.5" stroke-linecap="round" stroke-linejoin="round"/>
<path fill-rule="evenodd" clip-rule="evenodd" d="M69.75 17.8333C65.6539 17.8333 62.3334 14.5128 62.3334 10.4167C62.3334 6.32055 65.6539 3 69.75 3C73.8462 3 77.1667 6.32055 77.1667 10.4167C77.1667 14.5128 73.8462 17.8333 69.75 17.8333Z" stroke="#F7F7F7" stroke-width="4.5" stroke-linecap="round" stroke-linejoin="round"/>
<path fill-rule="evenodd" clip-rule="evenodd" d="M69.75 77.1668C65.6539 77.1668 62.3334 73.8463 62.3334 69.7502C62.3334 65.6541 65.6539 62.3335 69.75 62.3335C73.8462 62.3335 77.1667 65.6541 77.1667 69.7502C77.1667 73.8463 73.8462 77.1668 69.75 77.1668Z" stroke="#F7F7F7" stroke-width="4.5" stroke-linecap="round" stroke-linejoin="round"/>
<path fill-rule="evenodd" clip-rule="evenodd" d="M10.4167 47.5003C6.32055 47.5003 3 44.1798 3 40.0837C3 35.9875 6.32055 32.667 10.4167 32.667C14.5128 32.667 17.8333 35.9875 17.8333 40.0837C17.8333 44.1798 14.5128 47.5003 10.4167 47.5003Z" stroke="#F7F7F7" stroke-width="4.5" stroke-linecap="round" stroke-linejoin="round"/>
<path d="M17.8334 40.0835H62.3334" stroke="#F7F7F7" stroke-width="4.5" stroke-linecap="round" stroke-linejoin="round"/>
<path d="M62.3333 10.417H47.5C40.0833 10.417 36.375 14.1253 36.375 21.542V58.6253C36.375 66.042 40.0833 69.7503 47.5 69.7503H62.3333" stroke="#F7F7F7" stroke-width="4.5" stroke-linecap="round" stroke-linejoin="round"/>
</svg>
