<svg width="96" height="96" viewBox="0 0 96 96" fill="none" xmlns="http://www.w3.org/2000/svg">
<path d="M71.2398 28.64C65.7198 28.44 61.3198 23.92 61.3198 18.32C61.3198 12.6 65.9198 8 71.6398 8C77.3598 8 81.9598 12.64 81.9598 18.32C81.9198 23.92 77.5198 28.44 71.9998 28.64C71.7598 28.6 71.4798 28.6 71.2398 28.64Z" stroke="#F7F7F7" stroke-width="4.5" stroke-linecap="round" stroke-linejoin="round"/>
<path d="M67.8798 57.7602C73.3598 58.6802 79.3998 57.7202 83.6398 54.8802C89.2798 51.1202 89.2798 44.9602 83.6398 41.2002C79.3598 38.3602 73.2398 37.4001 67.7598 38.3601" stroke="#F7F7F7" stroke-width="4.5" stroke-linecap="round" stroke-linejoin="round"/>
<path d="M24.6399 28.64C30.1599 28.44 34.5599 23.92 34.5599 18.32C34.5599 12.6 29.9599 8 24.2399 8C18.5199 8 13.9199 12.64 13.9199 18.32C13.9599 23.92 18.3599 28.44 23.8799 28.64C24.1199 28.6 24.3999 28.6 24.6399 28.64Z" stroke="#F7F7F7" stroke-width="4.5" stroke-linecap="round" stroke-linejoin="round"/>
<path d="M27.9998 57.7602C22.5198 58.6802 16.4798 57.7202 12.2398 54.8802C6.59977 51.1202 6.59977 44.9602 12.2398 41.2002C16.5198 38.3602 22.6398 37.4001 28.1198 38.3601" stroke="#F7F7F7" stroke-width="4.5" stroke-linecap="round" stroke-linejoin="round"/>
<path d="M47.2398 58.5199C41.7198 58.3199 37.3198 53.7999 37.3198 48.1999C37.3198 42.4799 41.9198 37.8799 47.6398 37.8799C53.3598 37.8799 57.9598 42.5199 57.9598 48.1999C57.9198 53.7999 53.5198 58.3599 47.9998 58.5199C47.7598 58.4799 47.4798 58.4799 47.2398 58.5199Z" stroke="#F7F7F7" stroke-width="4.5" stroke-linecap="round" stroke-linejoin="round"/>
<path d="M36.3599 84.7999C42.7599 89.0799 53.2399 89.0799 59.6399 84.7999C65.2799 81.0399 65.2799 74.8799 59.6399 71.1199C53.2799 66.8799 42.7599 66.8799 36.3599 71.1199C30.7199 74.8799 30.7199 81.0399 36.3599 84.7999Z" stroke="#F7F7F7" stroke-width="4.5" stroke-linecap="round" stroke-linejoin="round"/>
</svg>
