<svg width="88" height="88" viewBox="0 0 88 88" fill="none" xmlns="http://www.w3.org/2000/svg">
<path d="M85 44C85 21.368 66.632 3 44 3C21.368 3 3 21.368 3 44C3 66.632 21.368 85 44 85M27.5999 7.1H31.6999C23.7049 31.044 23.7049 56.956 31.6999 80.9H27.5999M56.3 7.1C60.277 19.072 62.286 31.536 62.286 44M7.1 60.4V56.3C19.072 60.277 31.536 62.2861 44 62.2861M7.1 31.7004C31.044 23.7054 56.956 23.7054 80.9 31.7004M71.47 61.425C72.7 65.853 76.1441 69.2969 80.5721 70.5269M59.0471 73.8482C58.4731 74.4222 57.9401 75.4881 57.8171 76.2671L57.0381 81.802C56.7511 83.811 58.1452 85.205 60.1542 84.918L65.6891 84.139C66.4681 84.016 67.5752 83.4831 68.1082 82.9091L82.6221 68.3952C85.1231 65.8942 86.3121 62.983 82.6221 59.293C78.9731 55.644 76.0622 56.8331 73.5612 59.3341L59.0471 73.8482Z" stroke="#F7F7F7" stroke-width="4.5" stroke-linecap="round" stroke-linejoin="round"/>
</svg>
