<svg width="80" height="80" viewBox="0 0 80 80" fill="none" xmlns="http://www.w3.org/2000/svg">
<path d="M31.075 55L36.7 60.625L48.8875 49.375" stroke="#F7F7F7" stroke-width="4.5" stroke-linecap="round" stroke-linejoin="round"/>
<path d="M28.0375 2.5L14.4625 16.1125" stroke="#F7F7F7" stroke-width="4.5" stroke-linecap="round" stroke-linejoin="round"/>
<path d="M51.9625 2.5L65.5375 16.1125" stroke="#F7F7F7" stroke-width="4.5" stroke-linecap="round" stroke-linejoin="round"/>
<path d="M10.825 16.9374H69.175C73.7875 16.9374 77.5 17.4999 77.5 24.4374C77.5 32.4999 73.7875 31.9374 69.175 31.9374H10.825C6.2125 31.9374 2.5 32.4999 2.5 24.4374C2.5 17.4999 6.2125 16.9374 10.825 16.9374Z" stroke="#F7F7F7" stroke-width="4.5"/>
<path d="M8.125 32.5L13.4125 64.9C14.6125 72.175 17.5 77.5 28.225 77.5H50.8375C62.5 77.5 64.225 72.4 65.575 65.35L71.875 32.5" stroke="#F7F7F7" stroke-width="4.5" stroke-linecap="round"/>
</svg>
