<svg width="92" height="92" viewBox="0 0 92 92" fill="none" xmlns="http://www.w3.org/2000/svg">
<path d="M84.8228 58.9818C84.9047 58.0809 84.9048 57.18 84.9048 56.2381V31.6667C84.9048 11.1905 76.7143 3 56.2381 3H31.6667C11.1905 3 3 11.1905 3 31.6667V56.2381C3 76.7143 11.1905 84.9048 31.6667 84.9048H56.2381C57.18 84.9048 58.1219 84.9047 58.9819 84.8228M84.8228 58.9818C84.659 58.7361 84.4543 58.4905 84.2495 58.2857C84.2085 58.2448 84.1676 58.1629 84.1267 58.122C80.8095 54.4363 75.9362 52.1429 70.5714 52.1429C65.4114 52.1429 60.7019 54.2723 57.3438 57.7123C54.1086 61.0295 52.1429 65.5752 52.1429 70.5714C52.1429 74.0114 53.1257 77.2876 54.8047 80.0724C55.7057 81.5876 56.8524 82.98 58.1629 84.1267C58.2448 84.1676 58.2857 84.2087 58.3266 84.2496C58.5314 84.4544 58.7362 84.618 58.9819 84.8228M84.8228 58.9818C87.4438 62.1352 89 66.1895 89 70.5714C89 72.0457 88.8362 73.479 88.4676 74.8714C88.0171 76.7142 87.28 78.4753 86.3381 80.0724C83.1438 85.3962 77.2876 89 70.5714 89C66.1486 89 62.1352 87.4437 59.0228 84.8228C58.9819 84.8228 58.9819 84.8228 58.9819 84.8228M5.1296 23.9261H82.7753M29.701 3.44992V23.3527M58.2037 3.44992V21.5101M77.4516 70.4894H63.6917M70.5714 63.7737V77.5336" stroke="#F7F7F7" stroke-width="4.5" stroke-linecap="round" stroke-linejoin="round"/>
</svg>
