<?xml version="1.0" encoding="UTF-8"?>
<svg id="Layer_1" data-name="Layer 1" xmlns="http://www.w3.org/2000/svg" viewBox="0 0 840.5 159">
  <defs>
    <style>
      .cls-1 {
        fill: #fdb833;
        stroke-width: 0px;
      }
    </style>
  </defs>
  <g>
    <g>
      <path class="cls-1" d="M302,31.4c-27.49,0-49.85,22.36-49.85,49.85v49.85h13.91v-49.85c0-19.82,16.12-35.94,35.94-35.94s35.94,16.12,35.94,35.94v49.85h13.91v-49.85c0-27.49-22.36-49.85-49.85-49.85Z"/>
      <path class="cls-1" d="M271.06,136.11h-23.91v-54.85c0-30.25,24.61-54.85,54.85-54.85s54.85,24.61,54.85,54.85v54.85h-23.91v-54.85c0-17.06-13.88-30.94-30.94-30.94s-30.94,13.88-30.94,30.94v54.85ZM257.14,126.11h3.91v-44.85c0-22.57,18.37-40.94,40.94-40.94s40.94,18.37,40.94,40.94v44.85h3.91v-44.85c0-24.73-20.12-44.85-44.85-44.85s-44.85,20.12-44.85,44.85v44.85Z"/>
    </g>
    <g>
      <path class="cls-1" d="M818.62,31.4v49.85c0,19.82-16.12,35.94-35.94,35.94s-35.94-16.12-35.94-35.94V31.41h-13.91v49.85c0,27.49,22.36,49.85,49.85,49.85s49.85-22.36,49.85-49.85V31.4h-13.91Z"/>
      <path class="cls-1" d="M782.68,136.11c-30.25,0-54.85-24.61-54.85-54.85V26.41h23.91v54.85c0,17.06,13.88,30.94,30.94,30.94s30.94-13.88,30.94-30.94V26.4h23.91v54.85c0,30.25-24.61,54.85-54.85,54.85ZM737.83,36.41v44.85c0,24.73,20.12,44.85,44.85,44.85s44.85-20.12,44.85-44.85v-44.85h-3.91v44.85c0,22.57-18.37,40.94-40.94,40.94s-40.94-18.37-40.94-40.94v-44.85h-3.91Z"/>
    </g>
    <g>
      <rect class="cls-1" x="393.71" y="31.59" width="13.91" height="99.71"/>
      <path class="cls-1" d="M412.62,136.29h-23.91V26.59h23.91v109.71ZM398.71,126.29h3.91V36.59h-3.91v89.71Z"/>
    </g>
    <g>
      <path class="cls-1" d="M520.78,31.29c-8.6,0-16.23,3.93-21.45,9.99-5.21-6.07-12.84-9.99-21.45-9.99-15.66,0-28.4,12.74-28.4,28.4v71.52h13.91V59.7c0-7.99,6.5-14.49,14.49-14.49s14.49,6.5,14.49,14.49v71.52h13.91V59.7c0-7.99,6.5-14.49,14.49-14.49s14.49,6.5,14.49,14.49v71.52h13.91V59.7c0-15.66-12.74-28.4-28.4-28.4Z"/>
      <path class="cls-1" d="M554.18,136.22h-23.91V59.7c0-5.23-4.26-9.49-9.49-9.49s-9.49,4.26-9.49,9.49v76.52h-23.91V59.7c0-5.23-4.26-9.49-9.49-9.49s-9.49,4.26-9.49,9.49v76.52h-23.91V59.7c0-18.42,14.99-33.4,33.4-33.4,7.87,0,15.44,2.85,21.45,7.96,6-5.11,13.58-7.96,21.45-7.96,18.42,0,33.4,14.98,33.4,33.4v76.52ZM540.27,126.22h3.91V59.7c0-12.91-10.5-23.4-23.4-23.4-6.71,0-13.15,3.01-17.66,8.25l-3.79,4.41-3.79-4.41c-4.51-5.24-10.94-8.25-17.66-8.25-12.91,0-23.4,10.5-23.4,23.4v66.52h3.91V59.7c0-10.75,8.74-19.49,19.49-19.49s19.49,8.74,19.49,19.49v66.52h3.91V59.7c0-10.75,8.74-19.49,19.49-19.49s19.49,8.74,19.49,19.49v66.52Z"/>
    </g>
    <g>
      <path class="cls-1" d="M690.97,59.81c0-15.66-12.74-28.4-28.4-28.4h-71.52v13.91h71.52c7.99,0,14.49,6.5,14.49,14.49s-6.5,14.49-14.49,14.49h-71.45v56.81h71.45c15.66,0,28.4-12.74,28.4-28.4,0-8.61-3.93-16.24-9.99-21.45,6.06-5.21,9.99-12.84,9.99-21.45ZM677.06,102.7c0,7.99-6.5,14.49-14.49,14.49h-57.53v-28.98h57.53c7.99,0,14.49,6.5,14.49,14.49Z"/>
      <path class="cls-1" d="M662.56,136.11h-76.45v-66.81h76.45c5.23,0,9.49-4.26,9.49-9.49s-4.26-9.49-9.49-9.49h-76.52v-23.91h76.52c18.42,0,33.4,14.98,33.4,33.4,0,7.87-2.85,15.44-7.96,21.45,5.11,6.01,7.96,13.58,7.96,21.45,0,18.42-14.99,33.4-33.4,33.4ZM596.12,126.11h66.45c12.91,0,23.4-10.5,23.4-23.4,0-6.71-3.01-13.15-8.25-17.66l-4.41-3.79,4.41-3.79c5.24-4.51,8.25-10.94,8.25-17.66,0-12.9-10.5-23.4-23.4-23.4h-66.52v3.91h66.52c10.75,0,19.49,8.74,19.49,19.49s-8.74,19.49-19.49,19.49h-66.45v46.81ZM662.56,122.2h-62.53v-38.98h62.53c10.75,0,19.49,8.74,19.49,19.49s-8.74,19.49-19.49,19.49ZM610.03,112.2h52.53c5.23,0,9.49-4.26,9.49-9.49s-4.26-9.49-9.49-9.49h-52.53v18.98Z"/>
    </g>
  </g>
  <g>
    <path class="cls-1" d="M151.87,67.09c.17-2.38.28-4.77.27-7.19l-.21-53.61-53.9.21c-37.59.14-70.05,21.7-85.8,53,45.2-11.71,93.99-9.79,139.63,7.59Z"/>
    <path class="cls-1" d="M146.78,91.8c-50.18-12.55-103.23-2.09-144.64,27.47l.14,37.02,53.9-.21c41.96-.16,77.53-26.99,90.6-64.29Z"/>
  </g>
</svg>