<svg width="764" height="1070" viewBox="0 0 764 1070" fill="none" xmlns="http://www.w3.org/2000/svg">
<path opacity="0.4" d="M763.688 0V177.259L721.881 118.708V0H721.114L721.244 0.182792V117.811L679.437 59.2602V0H678.801V59.2602L636.993 117.811V0H381.688V59.2602L339.881 117.811V0H339.114L297.437 58.3685V0H296.801V59.2602L254.993 117.811V0H0V178.779H126.567L84.7601 237.33H0V238.405L0.130518 238.222H84.1203L42.3132 296.773H0V297.665H42.3132L84.1203 356.216H0V357.108H84.1203L42.3132 415.659H0V416.551H41.6765L0 474.924V475.998H84.1203L42.3132 534.55H0V1070H254.987V952.184L296.794 1010.74V1070H297.431V1010.74L339.238 952.184V1069.81L339.107 1070H339.875V951.292L381.682 892.741V1070H636.987V1010.74L637.118 1010.56L636.987 1010.37V952.189L678.794 1010.74V1070H679.431V1011.63L721.107 1070H721.875V952.189L763.682 1010.74V1070H764V534.554H637.433L679.24 476.003H763.997V474.928L763.866 475.111H679.877L721.684 416.56H763.997V415.668H721.684L679.877 357.117H763.997V356.225H679.877L721.684 297.674H763.997V296.782H722.32L763.997 238.414V237.339H679.877L721.684 178.788H763.997V0H763.678H763.688ZM679.116 60.076L721.241 119.073V177.887H636.987V119.073L679.113 60.076H679.116ZM721.878 119.965L763.236 177.887H721.878V119.965ZM467.024 1010.11L425.217 951.56H509.207L551.014 1010.11H467.024ZM297.883 891.221L339.69 832.67H424.316L466.123 891.221H297.883ZM212.091 1010.11H128.102L169.909 951.56H253.898L212.091 1010.11ZM42.7621 654.073L84.5691 595.522V713.151L42.7621 771.702V654.073ZM126.564 535.446L85.2058 593.369V535.446H126.564ZM127.653 415.927V297.407L169.46 238.855V475.374L127.653 533.926V416.297L127.783 416.114L127.653 415.931V415.927ZM253.902 118.445H169.912L128.105 59.8932H212.095L253.902 118.445ZM424.581 59.8932H508.57L466.763 118.445H382.774L424.581 59.8932ZM636.541 594.893L678.348 653.445H594.359L552.552 594.893H636.541ZM593.779 653.89L551.654 712.887H509.659V594.889H551.654L593.779 653.886V653.89ZM636.357 951.297V1009.48L552.555 892.117H636.357V950.931L636.226 951.114L636.357 951.297ZM467.028 891.221L424.902 832.224L467.028 773.227H509.022V891.225H467.028V891.221ZM424.32 831.778H340.33L382.137 773.227H466.127L424.32 831.778ZM85.0244 950.668L43.2173 892.117H211.458L169.651 950.668H85.0244ZM127.019 773.855V891.221H43.2173L127.019 773.855ZM382.322 119.965L423.68 177.887H382.322V119.965ZM551.651 119.336L593.458 177.887H425.217L467.024 119.336H551.651ZM636.354 297.407V415.927L594.547 474.478V237.959L636.354 179.408V297.036L636.223 297.219L636.354 297.402V297.407ZM467.661 772.33L509.019 714.408V772.33H467.661ZM297.883 772.33L339.69 713.779H382.322H508.57L466.763 772.33H297.883ZM212.543 891.221V833.298L253.902 891.221H212.543ZM254.35 892.112V950.035L212.992 892.112H254.35ZM211.907 891.221H127.653V832.406L169.778 773.409L211.904 832.406V891.221H211.907ZM212.543 297.407L254.35 238.855V356.221V474.478L212.543 415.927V297.407ZM297.116 178.962L297.246 178.779H424.316L466.123 237.33H297.243L255.436 178.779H296.982L297.113 178.962H297.116ZM552.103 533.921V416.292L593.91 357.741V475.37L552.103 533.921ZM169.463 772.589L127.656 831.14V595.513L169.463 654.064V772.585V772.589ZM169.014 535.441L127.656 593.364V535.441H169.014ZM127.79 594.438L169.466 536.07V652.807L127.79 594.438ZM254.993 534.55V417.184L296.801 475.735V594.256L254.993 652.807V534.55ZM296.352 237.326H254.993V179.403L296.352 237.326ZM254.993 238.218H296.988L339.114 297.215L296.988 356.212H254.993V238.213V238.218ZM551.469 415.922L509.662 474.474V297.402L509.793 297.219L509.662 297.036V238.851L551.469 297.402V415.922ZM551.469 533.921L509.793 475.553L551.469 417.184V533.921ZM509.026 712.254L467.219 653.703V417.184L508.895 475.553L509.026 475.735V534.55V712.25V712.254ZM339.696 297.665H424.323L466.13 356.216H424.587L424.456 356.034L424.326 356.216H381.694H297.892L339.7 297.665H339.696ZM466.582 533.921L424.775 475.37V357.741L466.582 416.292V533.921ZM339.884 416.292L381.691 357.741V415.922L381.561 416.105L381.691 416.288V534.991V594.251L339.884 652.803V416.283V416.292ZM381.242 357.108L339.884 415.031V357.108H381.242ZM381.691 595.517V712.883H297.889L381.691 595.517ZM382.328 357.108H423.686L382.328 415.031V357.108ZM424.135 357.737V474.474L382.458 416.105L424.135 357.737ZM425.224 357.108H466.767L466.897 357.291L467.028 357.108H509.022V474.474L425.22 357.108H425.224ZM467.667 356.216L509.026 298.294V356.216H467.667ZM466.897 356.034L425.22 297.665H508.574L466.897 356.034ZM339.244 357.108V415.922L297.119 474.919L254.993 415.922V357.108H339.247H339.244ZM297.437 475.735L339.244 417.184V534.813L297.437 593.364V475.735ZM339.244 536.07V653.699L297.437 712.25V594.621L339.244 536.07ZM296.801 712.25L255.124 653.881L296.801 595.513V712.25ZM296.352 712.879H254.993V654.956L296.352 712.879ZM382.328 534.991V417.18L424.135 475.731V594.251L382.328 652.803V534.991ZM424.772 476.623L466.579 535.174V652.803L424.772 594.251V476.623ZM509.026 178.77V296.136L425.224 178.77H509.026ZM508.577 296.769H424.587L382.78 238.218H466.77L508.577 296.769ZM381.879 238.218L423.686 296.769H339.696L297.889 238.218H381.879ZM382.328 654.069L424.453 595.072L466.579 654.069V712.883H382.325V654.069H382.328ZM467.219 654.96L508.577 712.883H467.219V654.96ZM509.662 476.627L551.02 534.55H509.662V476.627ZM593.916 356.475L552.109 415.026V297.398L593.916 238.846V356.475ZM551.791 296.586L509.665 237.589V178.775H593.919V237.589L551.794 296.586H551.791ZM254.36 236.697L213.002 178.775H254.36V236.697ZM212.553 179.408L254.229 237.776L212.553 296.145V179.408ZM170.109 772.589V654.96L211.916 713.512V831.14L170.109 772.589ZM211.916 712.254L170.109 653.703V536.074L211.916 594.626V712.254ZM170.558 535.441H254.36V652.807L170.558 535.441ZM296.992 713.775L297.122 713.957L297.253 713.775H338.795L254.993 831.14V713.775H296.988H296.992ZM552.561 534.55L636.363 417.184V534.55H552.561ZM594.556 236.697V178.775H635.914L594.556 236.697ZM424.46 177.7L382.783 119.332H466.136L424.46 177.7ZM213.005 177.883L254.363 119.96V177.883H213.005ZM212.238 177.7L170.561 119.332H253.914L212.238 177.7ZM211.471 178.775L127.669 296.14V178.775H211.471ZM211.919 179.403V297.032L170.112 355.583V237.955L211.919 179.403ZM170.112 356.845L211.919 298.294V415.922L170.112 474.474V356.845ZM212.238 416.734L254.363 475.731V534.545H170.109V475.731L212.235 416.734H212.238ZM169.476 534.545H128.117L169.476 476.623V534.545ZM212.238 892.286L253.914 950.655H170.561L212.238 892.286ZM212.556 832.028V595.513L254.233 653.881L254.363 654.064V713.77V832.028L254.233 832.21L254.363 832.393V890.579L212.556 832.028ZM255.452 831.764L297.259 773.213H381.249L339.442 831.764H255.452ZM338.805 832.656L297.128 891.025L255.452 832.656H338.805ZM509.672 891.207V773.842L593.474 891.207H509.672ZM510.121 773.209H594.11L635.918 831.76H551.928L510.121 773.209ZM510.121 772.317L551.797 713.949L593.474 772.317H510.121ZM509.672 771.688V713.766H551.03L509.672 771.688ZM509.672 593.984V536.061L551.03 593.984H509.672ZM636.354 58.9971H594.995L636.354 1.07446V58.9971ZM636.354 59.8888V177.887H594.359L552.233 118.89L594.359 59.8932H636.354V59.8888ZM551.651 118.44H467.661L509.468 59.8888H593.458L551.651 118.44ZM254.987 177.883V119.96L296.345 177.883H254.987ZM127.204 59.8888L169.011 118.44H85.0212L43.2141 59.8888H127.204ZM85.0212 119.332H169.648L211.455 177.883H43.2141L85.0212 119.332ZM127.016 536.074V594.26L126.886 594.443L127.016 594.626V772.589L85.209 831.14V594.621L127.016 536.07V536.074ZM84.5723 714.408V832.036L42.7653 890.588V772.959L84.5723 714.408ZM42.1286 890.588L0.448854 832.224L42.1254 773.855V890.592L42.1286 890.588ZM84.4418 951.11L42.3164 1010.11H0.318336V892.108H42.3132L84.4386 951.105L84.4418 951.11ZM85.0244 951.555H169.014L127.207 1010.11H43.2141L85.0212 951.555H85.0244ZM254.99 833.298L296.349 891.221H254.99V833.298ZM382.325 892.741L423.683 950.664H382.325V892.741ZM382.774 892.112H509.022H551.654L593.461 950.664H424.584L382.777 892.112H382.774ZM510.108 951.555H594.098L635.905 1010.11H551.915L510.108 951.555ZM635.905 1011L594.228 1069.37L552.552 1011H635.905ZM679.249 891.216L679.119 891.034L678.988 891.216H594.362L552.555 832.665H721.435L763.242 891.216H679.253H679.249ZM636.806 831.773L594.999 773.222H678.988L720.795 831.773H636.806ZM678.988 772.33H594.362L552.555 713.779H720.795L678.988 772.33ZM552.555 712.887L594.362 654.336H678.988L720.795 712.887H552.552H552.555ZM679.889 654.336H763.242L721.566 712.705L679.889 654.336ZM679.253 653.445L637.446 594.893H721.435L763.242 653.445H679.253ZM551.918 594.002L510.111 535.45H551.657L551.788 535.633L551.918 535.45H678.988L720.795 594.002H551.918ZM594.101 59.0016H425.22L467.024 0.445833H635.905L594.098 58.9971L594.101 59.0016ZM466.123 0.445833L382.322 117.811V0.445833H466.123ZM381.685 118.703L381.554 118.886L381.685 119.069V177.883H297.883L381.685 60.5174V118.703ZM339.241 1.07446V118.703L297.434 177.254V59.6302L339.241 1.07446ZM296.797 60.5174V177.254L255.121 118.886L296.797 60.5174ZM254.35 0.445833V117.811L170.549 0.445833H254.35ZM169.648 0.445833L211.455 58.9971H42.5774L0.76719 0.445833H169.644H169.648ZM41.6765 58.9971H0.318336V1.07446L41.6765 58.9971ZM0.318336 59.8888H42.3132L84.4386 118.886L42.3132 177.883H0.318336V59.8888ZM127.016 179.408V237.33H85.6578L127.016 179.408ZM85.0212 238.222H127.016V356.221H85.0212L84.8907 356.038L42.8958 297.224L85.0212 238.227V238.222ZM127.016 357.112V415.035L85.6578 357.112H127.016ZM84.8907 357.295L126.567 415.664H43.2141L84.8907 357.295ZM0.76719 475.111L42.5743 416.56H126.564L84.757 475.111H0.76719ZM127.016 417.189V534.554H43.2141L127.016 417.189ZM84.5723 535.446V594.26L42.4469 653.257L0.318336 594.26V535.446H84.5723ZM0.318336 595.522L42.1254 654.073V772.594L0.318336 831.145V595.517V595.522ZM41.6765 891.221H0.318336V833.298L41.6765 891.221ZM0.318336 1011H41.6765L0.318336 1068.93V1011ZM42.5774 1011H211.455L169.648 1069.55H0.76719L42.5743 1011H42.5774ZM170.549 1069.55L254.35 952.189V1069.55H170.549ZM297.116 1009.92L255.121 951.11L254.99 950.927V892.112H296.985L297.116 892.295L297.246 892.112H339.241V950.927L297.116 1009.92ZM339.878 892.112H381.236L339.878 950.035V892.112ZM382.322 951.555H424.316L466.442 1010.55L424.316 1069.55H382.322V951.551V951.555ZM425.217 1069.55L467.024 1011H551.651L593.458 1069.55H425.214H425.217ZM594.995 1069.55L636.354 1011.63V1069.55H594.995ZM636.99 892.112H678.348L636.99 950.035V892.112ZM637.121 951.11L678.797 892.741V1009.48L637.121 951.11ZM721.241 1068.92L679.434 1010.37V892.741L721.241 951.292V1068.92ZM763.685 1009.48L679.883 892.112H763.685V1009.48ZM763.685 890.592L722.327 832.67H763.685V890.592ZM721.69 831.778L679.565 772.781L721.69 713.784H763.685V831.782H721.69V831.778ZM763.685 712.887H722.327L763.685 654.965V712.887ZM679.883 535.446H763.685V652.811L679.883 535.446ZM636.987 533.921V475.998H678.345L636.987 533.921ZM678.982 475.107H636.987V357.108H678.982L679.113 357.291L721.107 416.105L678.982 475.102V475.107ZM636.987 356.216V298.294L678.345 356.216H636.987ZM679.113 356.034L637.436 297.665H720.789L679.113 356.034ZM763.233 238.222L721.426 296.773H637.436L679.243 238.222H763.233ZM636.984 296.145V178.779H720.786L636.984 296.145Z" fill="url(#paint0_radial_175_36)"/>
<defs>
<radialGradient id="paint0_radial_175_36" cx="0" cy="0" r="1" gradientUnits="userSpaceOnUse" gradientTransform="translate(370.69 535) scale(297.573 416.754)">
<stop stop-color="#F2E1A4"/>
<stop offset="0.21" stop-color="#DCC177"/>
<stop offset="0.43" stop-color="#C69F47"/>
<stop offset="1" stop-color="#F2E1A4" stop-opacity="0"/>
</radialGradient>
</defs>
</svg>
